<?xml version="1.0" encoding="utf-8" standalone="no"?>
<!DOCTYPE svg PUBLIC "-//W3C//DTD SVG 1.1//EN"
  "http://www.w3.org/Graphics/SVG/1.1/DTD/svg11.dtd">
<svg xmlns:xlink="http://www.w3.org/1999/xlink" width="540pt" height="331.2pt" viewBox="0 0 540 331.2" xmlns="http://www.w3.org/2000/svg" version="1.1">
 <metadata>
  <rdf:RDF xmlns:dc="http://purl.org/dc/elements/1.1/" xmlns:cc="http://creativecommons.org/ns#" xmlns:rdf="http://www.w3.org/1999/02/22-rdf-syntax-ns#">
   <cc:Work>
    <dc:type rdf:resource="http://purl.org/dc/dcmitype/StillImage"/>
    <dc:date>2026-09-15T19:54:37.868208</dc:date>
    <dc:format>image/svg+xml</dc:format>
    <dc:creator>
     <cc:Agent>
      <dc:title>Matplotlib v3.11.2, https://matplotlib.org/</dc:title>
     </cc:Agent>
    </dc:creator>
   </cc:Work>
  </rdf:RDF>
 </metadata>
 <defs>
  <style type="text/css">*{stroke-linejoin: round; stroke-linecap: butt}</style>
 </defs>
 <g id="figure_1">
  <g id="patch_1">
   <path d="M 0 331.2 
L 540 331.2 
L 540 0 
L 0 0 
z
" style="fill: #ffffff"/>
  </g>
  <g id="axes_1">
   <g id="patch_2">
    <path d="M 37.152 16.29504 
L 248.832 16.29504 
L 248.832 55.24416 
L 37.152 55.24416 
L 37.152 16.29504 
z
" clip-path="url(#pd11fb6b15e)" style="fill: none; stroke: #000000; stroke-width: 0.8; stroke-linejoin: miter"/>
   </g>
   <g id="patch_3">
    <path d="M 37.152 77.96448 
L 248.832 77.96448 
L 248.832 116.9136 
L 37.152 116.9136 
L 37.152 77.96448 
z
" clip-path="url(#pd11fb6b15e)" style="fill: none; stroke: #000000; stroke-width: 0.8; stroke-linejoin: miter"/>
   </g>
   <g id="patch_4">
    <path d="M 37.152 139.63392 
L 248.832 139.63392 
L 248.832 178.58304 
L 37.152 178.58304 
L 37.152 139.63392 
z
" clip-path="url(#pd11fb6b15e)" style="fill: none; stroke: #000000; stroke-width: 0.8; stroke-linejoin: miter"/>
   </g>
   <g id="patch_5">
    <path d="M 37.152 201.30336 
L 248.832 201.30336 
L 248.832 240.25248 
L 37.152 240.25248 
L 37.152 201.30336 
z
" clip-path="url(#pd11fb6b15e)" style="fill: none; stroke: #000000; stroke-width: 0.8; stroke-linejoin: miter"/>
   </g>
   <g id="patch_6">
    <path d="M 37.152 262.9728 
L 248.832 262.9728 
L 248.832 301.92192 
L 37.152 301.92192 
L 37.152 262.9728 
z
" clip-path="url(#pd11fb6b15e)" style="fill: none; stroke: #000000; stroke-width: 0.8; stroke-linejoin: miter"/>
   </g>
   <g id="patch_7">
    <path d="M 307.044 262.9728 
L 508.14 262.9728 
L 508.14 301.92192 
L 307.044 301.92192 
L 307.044 262.9728 
z
" clip-path="url(#pd11fb6b15e)" style="fill: none; stroke: #000000; stroke-width: 0.8; stroke-linejoin: miter"/>
   </g>
   <g id="patch_8">
    <path d="M 307.044 185.07456 
L 508.14 185.07456 
L 508.14 224.02368 
L 307.044 224.02368 
L 307.044 185.07456 
z
" clip-path="url(#pd11fb6b15e)" style="fill: none; stroke: #000000; stroke-width: 0.8; stroke-linejoin: miter"/>
   </g>
   <g id="patch_9">
    <path d="M 307.044 103.93056 
L 508.14 103.93056 
L 508.14 142.87968 
L 307.044 142.87968 
L 307.044 103.93056 
z
" clip-path="url(#pd11fb6b15e)" style="fill: none; stroke: #000000; stroke-width: 0.8; stroke-linejoin: miter"/>
   </g>
   <g id="text_1">
    <!-- 视频采集 -->
    <g transform="translate(120.992 39.722725) scale(0.11 -0.11)">
     <defs>
      <path id="SimSun-3ff6" d="M 5425 4450 
Q 5425 2300 5450 1875 
L 5100 1675 
L 5100 4525 
L 3300 4525 
L 3300 1825 
L 2950 1600 
Q 2975 2025 2975 3212 
Q 2975 4400 2950 4900 
L 3325 4675 
L 5050 4675 
L 5250 4925 
L 5625 4600 
L 5425 4450 
z
M 3975 4025 
L 4575 3725 
L 4350 3550 
Q 4350 2625 4262 1987 
Q 4175 1350 3937 887 
Q 3700 425 3200 37 
Q 2700 -350 2000 -625 
L 1950 -550 
Q 2950 0 3375 575 
Q 3800 1150 3912 1925 
Q 4025 2700 3975 4025 
z
M 4275 -75 
L 4275 1150 
Q 4275 1425 4250 2000 
L 4825 1700 
L 4600 1525 
L 4600 100 
Q 4600 -125 4875 -100 
L 5425 -100 
Q 5650 -100 5700 275 
Q 5750 650 5750 1075 
L 5875 1075 
Q 5875 575 5912 325 
Q 5950 75 6150 0 
Q 6025 -350 5575 -400 
L 4700 -400 
Q 4275 -400 4275 -75 
z
M 1400 -625 
Q 1425 -150 1425 2300 
Q 975 1700 275 1225 
L 225 1300 
Q 925 1950 1337 2650 
Q 1750 3350 1900 3725 
L 875 3725 
L 550 3675 
L 350 3875 
L 1900 3875 
L 2100 4150 
L 2525 3750 
L 2275 3625 
Q 2025 3200 1750 2725 
L 1750 2500 
Q 2300 2275 2475 2112 
Q 2650 1950 2650 1775 
Q 2650 1675 2587 1525 
Q 2525 1375 2500 1375 
Q 2425 1375 2300 1625 
Q 2125 2000 1750 2350 
Q 1750 -100 1775 -400 
L 1400 -625 
z
M 1000 5100 
L 1050 5150 
Q 1575 4875 1687 4712 
Q 1800 4550 1800 4425 
Q 1800 4275 1687 4150 
Q 1575 4025 1550 4025 
Q 1450 4025 1400 4275 
Q 1325 4650 1000 5100 
z
" transform="scale(0.015625)"/>
      <path id="SimSun-4ec1" d="M 2800 2050 
L 3225 1675 
L 3000 1550 
Q 2400 625 1862 200 
Q 1325 -225 400 -575 
L 375 -500 
Q 1475 100 2000 712 
Q 2525 1325 2800 2050 
z
M 1800 2950 
L 1800 4375 
Q 1800 4700 1775 5250 
L 2300 5025 
L 2100 4850 
L 2100 4075 
L 2500 4075 
L 2775 4350 
L 3150 3925 
L 2100 3925 
L 2100 2950 
L 2575 2950 
L 2875 3225 
L 3275 2800 
L 1800 2800 
L 2250 2550 
L 2075 2425 
L 2075 1150 
L 1750 950 
L 1750 2800 
L 1150 2800 
Q 825 2800 550 2725 
L 325 2950 
L 1000 2950 
L 1000 3900 
Q 1000 4200 975 4500 
L 1500 4275 
L 1300 4100 
L 1300 2950 
L 1800 2950 
z
M 1100 2325 
L 1550 2025 
Q 1375 1975 1100 1500 
Q 800 1000 325 575 
L 275 650 
Q 825 1400 1100 2325 
z
M 3375 800 
Q 3400 1450 3400 2312 
Q 3400 3175 3375 3925 
L 3725 3725 
L 4200 3725 
Q 4300 4425 4325 4700 
L 3775 4700 
Q 3450 4700 3175 4625 
L 2950 4850 
L 5400 4850 
L 5725 5150 
L 6150 4700 
L 4800 4700 
Q 4625 4500 4325 3725 
L 5425 3725 
L 5625 3950 
L 6000 3650 
L 5800 3500 
L 5800 1975 
Q 5800 1550 5825 1100 
L 5475 900 
L 5475 3575 
L 3725 3575 
L 3725 1025 
L 3375 800 
z
M 5000 2875 
L 4775 2700 
Q 4775 1500 4612 987 
Q 4450 475 3987 100 
Q 3525 -275 2575 -575 
L 2550 -500 
Q 3550 -50 3937 400 
Q 4325 850 4387 1587 
Q 4450 2325 4425 3150 
L 5000 2875 
z
M 4725 875 
Q 5700 425 5862 250 
Q 6025 75 6025 -100 
Q 6025 -225 5975 -362 
Q 5925 -500 5875 -500 
Q 5825 -500 5775 -400 
Q 5650 -175 5437 87 
Q 5225 350 4675 800 
L 4725 875 
z
" transform="scale(0.015625)"/>
      <path id="SimSun-47f7" d="M 5250 5250 
L 5625 4775 
Q 5200 4750 3800 4625 
Q 2400 4475 725 4475 
L 725 4575 
Q 1975 4650 2775 4737 
Q 3575 4825 4250 4950 
Q 4925 5075 5250 5250 
z
M 1075 4125 
Q 1825 3650 1887 3462 
Q 1950 3275 1950 3225 
Q 1950 3075 1850 2962 
Q 1750 2850 1725 2850 
Q 1625 2850 1550 3125 
Q 1425 3525 1025 4075 
L 1075 4125 
z
M 2600 4275 
L 2675 4325 
Q 3375 3925 3437 3762 
Q 3500 3600 3500 3550 
Q 3500 3400 3400 3262 
Q 3300 3125 3250 3125 
Q 3175 3125 3100 3425 
Q 2975 3825 2600 4275 
z
M 4825 4475 
L 5350 4125 
L 5125 3975 
Q 4450 3025 3975 2600 
L 3900 2675 
Q 4550 3575 4825 4475 
z
M 3350 2200 
Q 3350 50 3375 -500 
L 2950 -675 
Q 2975 875 2975 1975 
Q 2100 425 275 -450 
L 225 -350 
Q 1825 600 2675 2200 
L 1150 2200 
Q 825 2200 550 2125 
L 325 2350 
L 2975 2350 
Q 2975 2675 2950 3075 
L 3525 2775 
L 3350 2575 
L 3350 2350 
L 5300 2350 
L 5650 2700 
L 6125 2200 
L 3625 2200 
Q 4525 250 6100 -25 
L 6100 -125 
Q 5750 -100 5550 -425 
Q 4150 325 3500 2200 
L 3350 2200 
z
" transform="scale(0.015625)"/>
      <path id="SimSun-4cf6" d="M 1775 2650 
L 1775 2075 
L 3200 2075 
L 3200 2650 
L 1775 2650 
z
M 1425 1500 
Q 1450 2500 1450 3750 
Q 975 3200 300 2750 
L 250 2825 
Q 800 3300 1250 3962 
Q 1700 4625 1925 5275 
L 2425 4925 
L 2200 4850 
L 1825 4250 
L 4975 4250 
L 5275 4550 
L 5700 4100 
L 3525 4100 
L 3525 3500 
L 4700 3500 
L 4975 3775 
L 5375 3350 
L 3525 3350 
L 3525 2800 
L 4650 2800 
L 4925 3075 
L 5325 2650 
L 3525 2650 
L 3525 2075 
L 4925 2075 
L 5225 2375 
L 5650 1925 
L 1775 1925 
L 1775 1625 
L 1425 1500 
z
M 2975 5200 
Q 3450 5025 3575 4887 
Q 3700 4750 3700 4650 
Q 3700 4550 3612 4425 
Q 3525 4300 3500 4300 
Q 3400 4300 3325 4525 
Q 3200 4850 2925 5125 
L 2975 5200 
z
M 1775 4100 
L 1775 3500 
L 3200 3500 
L 3200 4100 
L 1775 4100 
z
M 1775 3350 
L 1775 2800 
L 3200 2800 
L 3200 3350 
L 1775 3350 
z
M 3075 1300 
Q 3075 1675 3050 1900 
L 3600 1700 
L 3400 1525 
L 3400 1300 
L 5400 1300 
L 5700 1600 
L 6125 1150 
L 3675 1150 
Q 4150 600 4750 300 
Q 5350 0 6150 -75 
L 6150 -150 
Q 5775 -225 5700 -475 
Q 5050 -275 4525 87 
Q 4000 450 3550 1150 
L 3400 1150 
Q 3400 -100 3425 -450 
L 3050 -650 
Q 3075 150 3075 1125 
Q 2550 550 1887 150 
Q 1225 -250 300 -575 
L 275 -475 
Q 1175 -75 1800 387 
Q 2425 850 2650 1150 
L 1100 1150 
Q 775 1150 500 1075 
L 275 1300 
L 3075 1300 
z
" transform="scale(0.015625)"/>
     </defs>
     <use xlink:href="#SimSun-3ff6"/>
     <use xlink:href="#SimSun-4ec1" transform="translate(100 0)"/>
     <use xlink:href="#SimSun-47f7" transform="translate(200 0)"/>
     <use xlink:href="#SimSun-4cf6" transform="translate(300 0)"/>
    </g>
   </g>
   <g id="patch_10">
    <path d="M 142.992 55.24416 
Q 142.992 66.60432 142.992 77.070053 
" style="fill: none; stroke: #000000; stroke-width: 0.8; stroke-linecap: round"/>
    <path d="M 144.992 73.070053 
L 142.992 77.070053 
L 140.992 73.070053 
" style="fill: none; stroke: #000000; stroke-width: 0.8; stroke-linecap: round"/>
   </g>
   <g id="text_2">
    <!-- 目标引导三区处理 -->
    <g transform="translate(98.992 101.435134) scale(0.11 -0.11)">
     <defs>
      <path id="SimSun-2d1e" d="M 1875 1700 
L 1875 325 
L 4550 325 
L 4550 1700 
L 1875 1700 
z
M 1475 -550 
Q 1500 350 1500 2087 
Q 1500 3825 1475 4950 
L 1875 4675 
L 4500 4675 
L 4700 4950 
L 5175 4600 
L 4925 4425 
L 4925 725 
Q 4925 -25 4950 -325 
L 4550 -525 
L 4550 175 
L 1875 175 
L 1875 -325 
L 1475 -550 
z
M 1875 4525 
L 1875 3250 
L 4550 3250 
L 4550 4525 
L 1875 4525 
z
M 1875 3100 
L 1875 1850 
L 4550 1850 
L 4550 3100 
L 1875 3100 
z
" transform="scale(0.015625)"/>
      <path id="SimSun-1e37" d="M 4775 2225 
Q 5725 1275 5825 1050 
Q 5925 825 5925 700 
Q 5925 525 5825 375 
Q 5725 225 5700 225 
Q 5575 225 5475 650 
Q 5300 1225 4700 2175 
L 4775 2225 
z
M 2750 4600 
L 4975 4600 
L 5275 4900 
L 5725 4450 
L 3175 4450 
L 2950 4400 
L 2750 4600 
z
M 3100 75 
Q 3775 -50 3900 -25 
Q 4025 0 4025 175 
L 4025 2950 
L 2800 2950 
L 2575 2900 
L 2375 3100 
L 5350 3100 
L 5675 3425 
L 6150 2950 
L 4400 2950 
L 4400 -25 
Q 4375 -425 3850 -600 
Q 3850 -300 3100 -50 
L 3100 75 
z
M 3125 2275 
L 3675 1950 
L 3425 1825 
Q 2800 700 2100 25 
L 2025 100 
Q 2725 1025 3125 2275 
z
M 1675 2725 
Q 1675 25 1700 -475 
L 1300 -625 
Q 1325 450 1325 2325 
Q 950 1450 350 700 
L 275 800 
Q 975 1925 1325 3475 
L 700 3475 
L 475 3425 
L 275 3625 
L 1325 3625 
Q 1325 4575 1300 5275 
L 1900 4975 
L 1675 4800 
L 1675 3625 
L 2000 3625 
L 2275 3900 
L 2700 3475 
L 1675 3475 
L 1675 2850 
Q 2150 2600 2312 2425 
Q 2475 2250 2475 2125 
Q 2475 2050 2400 1912 
Q 2325 1775 2275 1775 
Q 2200 1775 2100 2075 
Q 1925 2475 1675 2725 
z
" transform="scale(0.015625)"/>
      <path id="SimSun-1545" d="M 5075 4675 
L 5075 575 
Q 5075 100 5100 -425 
L 4700 -600 
Q 4725 175 4725 725 
Q 4725 4575 4700 5150 
L 5300 4850 
L 5075 4675 
z
M 3375 4475 
Q 3375 3475 3400 3125 
L 3025 3000 
L 3025 3250 
L 1525 3250 
L 1275 2150 
L 3125 2150 
L 3325 2400 
L 3750 2050 
L 3500 1900 
Q 3375 1125 3225 575 
Q 3075 25 2850 -187 
Q 2625 -400 2250 -475 
Q 2275 -125 1600 125 
L 1600 225 
Q 2125 125 2350 112 
Q 2575 100 2675 225 
Q 2775 350 2900 787 
Q 3025 1225 3150 2000 
L 1275 2000 
L 1100 1775 
L 725 2125 
Q 925 2200 1025 2575 
Q 1125 2950 1200 3675 
L 1575 3400 
L 3025 3400 
L 3025 4550 
L 1650 4550 
Q 1325 4550 1050 4475 
L 825 4700 
L 3000 4700 
L 3175 4950 
L 3575 4650 
L 3375 4475 
z
" transform="scale(0.015625)"/>
      <path id="SimSun-122c" d="M 1925 2500 
Q 1400 2500 1400 2975 
Q 1400 4675 1375 5125 
L 1775 4900 
L 4450 4900 
L 4700 5150 
L 5050 4800 
L 4850 4675 
Q 4850 3950 4875 3575 
L 4500 3425 
L 4500 3700 
L 1750 3700 
L 1750 3125 
Q 1750 2775 2125 2775 
L 4950 2775 
Q 5175 2775 5237 2975 
Q 5300 3175 5325 3850 
L 5450 3850 
Q 5450 3425 5512 3162 
Q 5575 2900 5750 2850 
Q 5600 2500 5050 2500 
L 1925 2500 
z
M 1750 4750 
L 1750 3850 
L 4500 3850 
L 4500 4750 
L 1750 4750 
z
M 2825 125 
Q 3525 50 3750 37 
Q 3975 25 4000 250 
L 4000 1525 
L 1250 1525 
Q 925 1525 650 1450 
L 425 1675 
L 4000 1675 
Q 4000 2175 3975 2450 
L 4575 2175 
L 4350 2000 
L 4350 1675 
L 5025 1675 
L 5425 2075 
L 5975 1525 
L 4350 1525 
L 4350 100 
Q 4350 -325 3750 -575 
Q 3675 -225 2825 0 
L 2825 125 
z
M 1725 1375 
L 1800 1450 
Q 2550 925 2562 675 
Q 2575 425 2462 325 
Q 2350 225 2300 225 
Q 2200 225 2125 500 
Q 2025 900 1725 1375 
z
" transform="scale(0.015625)"/>
      <path id="SimSun-439" d="M 750 4300 
L 4875 4300 
L 5250 4675 
L 5775 4150 
L 1550 4150 
Q 1250 4150 975 4075 
L 750 4300 
z
M 1125 2300 
L 4375 2300 
L 4750 2675 
L 5275 2150 
L 1925 2150 
Q 1625 2150 1350 2075 
L 1125 2300 
z
M 250 175 
L 5200 175 
L 5600 575 
L 6150 25 
L 1050 25 
Q 750 25 475 -50 
L 250 175 
z
" transform="scale(0.015625)"/>
      <path id="SimSun-96a" d="M 2025 3850 
Q 2700 3350 3525 2575 
Q 3850 3025 4087 3437 
Q 4325 3850 4450 4150 
L 5025 3750 
Q 4800 3700 4475 3262 
Q 4150 2825 3800 2350 
Q 4700 1500 4775 1275 
Q 4850 1050 4850 925 
Q 4850 800 4787 662 
Q 4725 525 4700 525 
Q 4625 525 4500 775 
Q 4300 1125 4087 1412 
Q 3875 1700 3575 2050 
Q 3050 1475 2575 1075 
Q 2100 675 1725 450 
L 1675 525 
Q 2125 900 2525 1312 
Q 2925 1725 3325 2300 
Q 2650 3100 1950 3775 
L 2025 3850 
z
M 1225 4725 
L 4950 4725 
L 5300 5075 
L 5775 4575 
L 1225 4575 
L 1225 -100 
L 5050 -100 
L 5400 250 
L 5850 -250 
L 1250 -250 
L 1100 -475 
L 725 -175 
L 875 -25 
L 875 4100 
Q 875 4325 850 4950 
L 1225 4725 
z
" transform="scale(0.015625)"/>
      <path id="SimSun-f34" d="M 1700 3500 
Q 1600 3200 1500 2900 
Q 1750 1900 2200 1250 
Q 2625 2150 2850 3500 
L 1700 3500 
z
M 3525 3500 
L 3275 3350 
Q 3100 2825 2925 2225 
Q 2750 1600 2425 925 
Q 2750 550 3487 312 
Q 4225 75 6125 125 
L 6125 50 
Q 5700 -100 5650 -375 
Q 4100 -300 3400 -50 
Q 2700 200 2225 700 
Q 1975 400 1537 75 
Q 1100 -250 425 -500 
L 375 -425 
Q 950 -125 1362 237 
Q 1775 600 2050 950 
Q 1525 1875 1425 2750 
Q 1050 1900 525 1275 
L 425 1350 
Q 1025 2300 1325 3450 
Q 1625 4600 1650 5025 
L 2225 4775 
Q 2125 4650 2037 4475 
Q 1950 4300 1750 3650 
L 2825 3650 
L 3100 3925 
L 3525 3500 
z
M 4375 3350 
L 4375 1450 
Q 4375 1075 4400 650 
L 4000 475 
Q 4025 950 4025 1450 
L 4025 4150 
Q 4025 4475 4000 5075 
L 4575 4775 
L 4375 4600 
L 4375 3475 
Q 5175 3175 5587 2887 
Q 6000 2600 5925 2325 
Q 5850 2050 5775 2050 
Q 5675 2050 5575 2250 
Q 5325 2650 4375 3350 
z
" transform="scale(0.015625)"/>
      <path id="SimSun-2a36" d="M 325 575 
Q 1075 775 1350 875 
L 1350 2550 
L 1225 2550 
Q 900 2550 625 2475 
L 400 2700 
L 1350 2700 
L 1350 4225 
L 1175 4225 
Q 850 4225 575 4150 
L 350 4375 
L 1925 4375 
L 2225 4675 
L 2650 4225 
L 1675 4225 
L 1675 2700 
L 1925 2700 
L 2225 3000 
L 2650 2550 
L 1675 2550 
L 1675 975 
L 2700 1325 
L 2725 1225 
Q 1775 800 825 325 
L 625 125 
L 325 575 
z
M 2800 1800 
Q 2825 2600 2825 3350 
Q 2825 4100 2800 4900 
L 3125 4675 
L 5200 4675 
L 5375 4900 
L 5750 4600 
L 5550 4450 
L 5550 3275 
Q 5550 2475 5575 2025 
L 5250 1875 
L 5250 2175 
L 4350 2175 
L 4350 1100 
L 5075 1100 
L 5375 1400 
L 5800 950 
L 4350 950 
L 4350 -75 
L 5400 -75 
L 5725 250 
L 6175 -225 
L 2775 -225 
Q 2450 -225 2175 -300 
L 1950 -75 
L 4050 -75 
L 4050 950 
L 3500 950 
Q 3175 950 2900 875 
L 2675 1100 
L 4050 1100 
L 4050 2175 
L 3125 2175 
L 3125 1925 
L 2800 1800 
z
M 3125 4525 
L 3125 3525 
L 4050 3525 
L 4050 4525 
L 3125 4525 
z
M 4350 4525 
L 4350 3525 
L 5250 3525 
L 5250 4525 
L 4350 4525 
z
M 3125 3375 
L 3125 2325 
L 4050 2325 
L 4050 3375 
L 3125 3375 
z
M 4350 3375 
L 4350 2325 
L 5250 2325 
L 5250 3375 
L 4350 3375 
z
" transform="scale(0.015625)"/>
     </defs>
     <use xlink:href="#SimSun-2d1e"/>
     <use xlink:href="#SimSun-1e37" transform="translate(100 0)"/>
     <use xlink:href="#SimSun-1545" transform="translate(200 0)"/>
     <use xlink:href="#SimSun-122c" transform="translate(300 0)"/>
     <use xlink:href="#SimSun-439" transform="translate(400 0)"/>
     <use xlink:href="#SimSun-96a" transform="translate(500 0)"/>
     <use xlink:href="#SimSun-f34" transform="translate(600 0)"/>
     <use xlink:href="#SimSun-2a36" transform="translate(700 0)"/>
    </g>
   </g>
   <g id="patch_11">
    <path d="M 142.992 116.9136 
Q 142.992 128.27376 142.992 138.739493 
" style="fill: none; stroke: #000000; stroke-width: 0.8; stroke-linecap: round"/>
    <path d="M 144.992 134.739493 
L 142.992 138.739493 
L 140.992 134.739493 
" style="fill: none; stroke: #000000; stroke-width: 0.8; stroke-linecap: round"/>
   </g>
   <g id="text_3">
    <!-- CSRT 跟踪与观测 -->
    <g transform="translate(101.742 163.040121) scale(0.11 -0.11)">
     <defs>
      <path id="SimSun-26" d="M 1725 50 
Q 1025 50 612 575 
Q 200 1100 200 2225 
Q 200 3175 637 3800 
Q 1075 4425 1825 4425 
Q 2000 4425 2175 4375 
Q 2350 4300 2475 4300 
Q 2575 4300 2637 4325 
Q 2700 4350 2750 4425 
L 2975 3325 
L 2825 3275 
Q 2675 3750 2425 4000 
Q 2175 4250 1775 4250 
Q 1250 4250 962 3675 
Q 675 3100 675 2250 
Q 675 1325 925 800 
Q 1175 275 1750 275 
Q 2150 275 2437 562 
Q 2725 850 2825 1325 
L 2975 1250 
Q 2850 725 2512 387 
Q 2175 50 1725 50 
z
" transform="scale(0.015625)"/>
      <path id="SimSun-36" d="M 1500 2150 
Q 825 2450 575 2675 
Q 325 2900 325 3375 
Q 325 3750 637 4087 
Q 950 4425 1525 4425 
Q 1775 4425 2000 4350 
Q 2225 4250 2325 4250 
Q 2400 4250 2462 4287 
Q 2525 4325 2575 4425 
L 2675 3400 
L 2550 3350 
Q 2325 3875 2087 4062 
Q 1850 4250 1475 4250 
Q 1000 4250 825 3987 
Q 650 3725 650 3425 
Q 650 3150 812 2987 
Q 975 2825 1700 2500 
Q 2300 2250 2562 1937 
Q 2825 1625 2825 1200 
Q 2825 750 2512 400 
Q 2200 50 1600 50 
Q 1350 50 1150 150 
Q 925 225 800 225 
Q 725 225 650 175 
Q 575 125 475 50 
L 275 1275 
L 425 1325 
Q 600 700 912 462 
Q 1225 225 1625 225 
Q 2050 225 2262 475 
Q 2475 725 2475 1200 
Q 2475 1450 2237 1687 
Q 2000 1925 1500 2150 
z
" transform="scale(0.015625)"/>
      <path id="SimSun-35" d="M 2825 3375 
Q 2825 2875 2550 2600 
Q 2275 2325 1925 2275 
L 2675 425 
Q 2725 325 2787 287 
Q 2850 250 2925 250 
L 3075 250 
L 3075 100 
L 2375 100 
L 1550 2250 
L 975 2250 
L 975 450 
Q 975 350 1037 300 
Q 1100 250 1200 250 
L 1350 250 
L 1350 100 
L 200 100 
L 200 250 
L 350 250 
Q 475 250 525 300 
Q 575 350 575 450 
L 575 4025 
Q 575 4125 525 4175 
Q 475 4225 350 4225 
L 200 4225 
L 200 4375 
L 1625 4375 
Q 2200 4375 2512 4125 
Q 2825 3875 2825 3375 
z
M 2750 250 
L 2750 250 
z
M 975 2400 
L 1525 2400 
Q 1900 2400 2150 2625 
Q 2400 2850 2400 3325 
Q 2400 3750 2175 3987 
Q 1950 4225 1475 4225 
L 1200 4225 
Q 1100 4225 1037 4175 
Q 975 4125 975 4025 
L 975 2400 
z
" transform="scale(0.015625)"/>
      <path id="SimSun-37" d="M 2225 100 
L 925 100 
L 925 250 
L 1150 250 
Q 1275 250 1325 300 
Q 1375 350 1375 450 
L 1375 3950 
Q 1375 4150 1350 4175 
Q 1325 4200 1150 4200 
Q 800 4200 662 4075 
Q 525 3950 325 3400 
L 175 3425 
L 400 4375 
L 2775 4375 
L 2975 3425 
L 2850 3400 
Q 2650 3925 2537 4062 
Q 2425 4200 2075 4200 
Q 1825 4200 1800 4175 
Q 1775 4150 1775 3925 
L 1775 450 
Q 1775 350 1837 300 
Q 1900 250 2000 250 
L 2225 250 
L 2225 100 
z
" transform="scale(0.015625)"/>
      <path id="SimSun-3" d="M 0 0 
Q 0 0 0 0 
z
" transform="scale(0.015625)"/>
      <path id="SimSun-440f" d="M 1125 4550 
L 1125 3175 
L 2275 3175 
L 2275 4550 
L 1125 4550 
z
M 1850 500 
L 2875 825 
L 2900 725 
Q 2175 400 1525 150 
Q 850 -125 475 -350 
L 200 75 
L 725 200 
Q 725 1975 700 2400 
L 1225 2150 
L 1025 1975 
L 1025 275 
L 1550 425 
L 1550 3025 
L 1125 3025 
L 1125 2825 
L 775 2700 
Q 800 3200 800 3775 
Q 800 4350 775 4875 
L 1125 4700 
L 2250 4700 
L 2475 4925 
L 2800 4600 
L 2575 4425 
Q 2575 3325 2600 2925 
L 2275 2775 
L 2275 3025 
L 1850 3025 
L 1850 1925 
L 2300 1925 
L 2550 2175 
L 2925 1775 
L 1850 1775 
L 1850 500 
z
M 3525 3425 
L 3525 2475 
L 5100 2475 
L 5100 3425 
L 3525 3425 
z
M 5425 4425 
Q 5425 2850 5450 2300 
L 5100 2100 
L 5100 2325 
L 4075 2325 
Q 4225 1700 4525 1200 
Q 4875 1450 5137 1700 
Q 5400 1950 5525 2150 
L 5875 1725 
L 5650 1675 
Q 5050 1350 4600 1075 
Q 5175 300 6125 75 
L 6125 0 
Q 5775 -50 5625 -275 
Q 4125 575 3925 2325 
L 3525 2325 
L 3525 150 
L 4375 600 
L 4400 525 
Q 3650 -100 3400 -450 
L 3125 -75 
Q 3200 25 3200 300 
L 3200 3600 
Q 3200 4250 3175 4900 
L 3500 4700 
L 5075 4700 
L 5300 4925 
L 5650 4575 
L 5425 4425 
z
M 3525 4550 
L 3525 3575 
L 5100 3575 
L 5100 4550 
L 3525 4550 
z
" transform="scale(0.015625)"/>
      <path id="SimSun-445a" d="M 975 4400 
L 975 3125 
L 2100 3125 
L 2100 4400 
L 975 4400 
z
M 650 2675 
Q 650 3025 675 3700 
Q 675 4350 650 4750 
L 975 4550 
L 2075 4550 
L 2250 4775 
L 2600 4475 
L 2400 4325 
Q 2400 3300 2425 2900 
L 2100 2750 
L 2100 2975 
L 1725 2975 
L 1725 1900 
L 2075 1900 
L 2325 2150 
L 2675 1750 
L 1725 1750 
L 1725 500 
L 2550 750 
L 2575 650 
Q 1900 425 750 -75 
L 575 -250 
L 275 125 
L 650 225 
Q 650 1950 625 2350 
L 1175 2100 
L 950 1950 
L 950 300 
L 1425 425 
L 1425 2975 
L 975 2975 
L 975 2800 
L 650 2675 
z
M 3775 5150 
L 3825 5200 
Q 4300 5000 4437 4875 
Q 4575 4750 4525 4575 
Q 4475 4400 4362 4325 
Q 4250 4250 4175 4525 
Q 4075 4800 3775 5150 
z
M 5200 3575 
L 5475 4125 
L 3150 4125 
Q 3175 3900 3150 3725 
Q 3125 3550 3012 3512 
Q 2900 3475 2800 3475 
Q 2725 3475 2675 3487 
Q 2625 3500 2625 3525 
Q 2625 3625 2775 3800 
Q 2975 4075 3050 4525 
L 3150 4525 
L 3150 4275 
L 5450 4275 
L 5650 4525 
L 6075 4100 
Q 5800 4125 5275 3525 
L 5200 3575 
z
M 3025 3150 
L 4800 3150 
L 5125 3425 
L 5525 3000 
L 3725 3000 
Q 3525 3000 3250 2925 
L 3025 3150 
z
M 2650 2175 
L 5275 2175 
L 5625 2500 
L 6050 2025 
L 4475 2025 
L 4475 100 
Q 4500 -475 3975 -625 
Q 3925 -250 3225 -100 
L 3225 0 
Q 3725 -25 3925 -50 
Q 4125 -75 4125 150 
L 4125 2025 
L 3400 2025 
Q 3150 2025 2875 1950 
L 2650 2175 
z
M 4650 1375 
L 4700 1450 
Q 5525 950 5737 725 
Q 5950 500 5950 300 
Q 5950 175 5887 12 
Q 5825 -150 5775 -150 
Q 5700 -150 5600 100 
Q 5450 475 5137 850 
Q 4825 1225 4650 1375 
z
M 3350 1625 
L 3800 1275 
Q 3650 1275 3275 800 
Q 2875 300 2175 -225 
L 2125 -150 
Q 2450 150 2812 650 
Q 3175 1150 3350 1625 
z
" transform="scale(0.015625)"/>
      <path id="SimSun-43e" d="M 375 1250 
L 3750 1250 
L 4075 1575 
L 4550 1100 
L 1175 1100 
Q 875 1100 600 1025 
L 375 1250 
z
M 1700 2600 
Q 1800 4125 1812 4450 
Q 1825 4775 1825 5200 
L 2400 4925 
L 2200 4775 
L 2150 3850 
L 5075 3850 
L 5400 4175 
L 5875 3700 
L 2150 3700 
L 2075 2525 
L 5025 2525 
L 5225 2825 
L 5675 2500 
L 5450 2300 
Q 5400 1375 5300 687 
Q 5200 0 4937 -237 
Q 4675 -475 4250 -575 
Q 4275 -250 3425 0 
L 3450 125 
Q 4000 0 4400 0 
Q 4800 0 4925 737 
Q 5050 1475 5075 2375 
L 2100 2375 
L 1900 2125 
L 1500 2425 
L 1700 2600 
z
" transform="scale(0.015625)"/>
      <path id="SimSun-3ff2" d="M 2375 4100 
Q 2175 2925 1925 2175 
Q 2450 1375 2525 1087 
Q 2600 800 2600 725 
Q 2600 550 2525 437 
Q 2450 325 2425 325 
Q 2350 325 2200 800 
Q 2025 1375 1750 1875 
Q 1275 725 300 -200 
L 250 -100 
Q 1125 975 1550 2150 
Q 1300 2600 625 3475 
L 700 3525 
Q 1325 2900 1675 2475 
Q 1850 2975 2025 4200 
L 1200 4200 
Q 875 4200 600 4125 
L 375 4350 
L 2000 4350 
L 2250 4600 
L 2575 4275 
L 2375 4100 
z
M 5475 4500 
Q 5475 2600 5500 1900 
L 5150 1725 
L 5150 4600 
L 3200 4600 
L 3200 1875 
L 2850 1650 
Q 2875 2375 2875 3250 
Q 2875 4125 2850 4950 
L 3225 4750 
L 5100 4750 
L 5350 5000 
L 5700 4650 
L 5475 4500 
z
M 1525 -525 
Q 2250 -275 2775 112 
Q 3300 500 3550 1087 
Q 3800 1675 3850 2625 
Q 3900 3575 3900 4100 
L 4475 3775 
L 4250 3600 
Q 4225 2050 3987 1312 
Q 3750 575 3225 137 
Q 2700 -300 1550 -625 
L 1525 -525 
z
M 4675 -400 
Q 4250 -400 4250 100 
L 4250 1350 
Q 4250 1725 4225 2100 
L 4750 1825 
L 4575 1650 
L 4575 150 
Q 4575 -100 4850 -100 
L 5300 -100 
Q 5525 -100 5575 175 
Q 5625 450 5650 1125 
L 5775 1125 
Q 5775 500 5837 262 
Q 5900 25 6075 -25 
Q 5900 -400 5525 -400 
L 4675 -400 
z
" transform="scale(0.015625)"/>
      <path id="SimSun-237b" d="M 1975 1000 
Q 2000 1475 2000 2925 
Q 2000 4375 1975 5000 
L 2350 4775 
L 3575 4775 
L 3775 4975 
L 4100 4650 
L 3900 4500 
L 3900 2350 
Q 3900 1850 3925 1350 
L 3600 1200 
L 3600 4625 
L 2325 4625 
L 2325 1150 
L 1975 1000 
z
M 2775 3975 
L 3300 3700 
L 3125 3525 
Q 3150 1825 2875 937 
Q 2600 50 1375 -600 
L 1325 -500 
Q 2200 100 2475 725 
Q 2750 1350 2775 2187 
Q 2800 3025 2775 3975 
z
M 3100 950 
Q 3825 450 3937 262 
Q 4050 75 4050 -25 
Q 4050 -150 3975 -262 
Q 3900 -375 3850 -375 
Q 3750 -375 3650 -75 
Q 3500 375 3050 875 
L 3100 950 
z
M 4475 825 
Q 4500 1200 4500 1700 
L 4500 3400 
Q 4500 3950 4475 4300 
L 5025 4025 
L 4825 3825 
L 4825 1700 
Q 4825 1325 4850 950 
L 4475 825 
z
M 5375 150 
L 5375 4050 
Q 5375 4750 5350 5125 
L 5875 4875 
L 5700 4700 
L 5700 75 
Q 5700 -200 5600 -350 
Q 5500 -500 5200 -600 
Q 5025 -225 4450 -50 
L 4450 50 
Q 5125 -50 5250 -37 
Q 5375 -25 5375 150 
z
M 1850 3500 
Q 1375 1525 1300 1225 
Q 1200 900 1212 450 
Q 1225 0 1250 -175 
Q 1250 -275 1125 -275 
Q 1025 -275 875 -225 
Q 725 -175 725 0 
Q 725 125 800 375 
Q 875 625 875 775 
Q 875 950 762 1050 
Q 650 1150 275 1250 
L 275 1350 
Q 725 1300 837 1312 
Q 950 1325 1087 1537 
Q 1225 1750 1750 3525 
L 1850 3500 
z
M 375 3775 
Q 1075 3350 1112 3100 
Q 1150 2850 1050 2775 
Q 950 2700 900 2700 
Q 800 2700 725 2975 
Q 600 3350 325 3700 
L 375 3775 
z
M 800 5100 
Q 1475 4725 1550 4512 
Q 1625 4300 1525 4187 
Q 1425 4075 1350 4075 
Q 1275 4075 1200 4300 
Q 1075 4650 750 5025 
L 800 5100 
z
" transform="scale(0.015625)"/>
     </defs>
     <use xlink:href="#SimSun-26"/>
     <use xlink:href="#SimSun-36" transform="translate(50 0)"/>
     <use xlink:href="#SimSun-35" transform="translate(100 0)"/>
     <use xlink:href="#SimSun-37" transform="translate(150 0)"/>
     <use xlink:href="#SimSun-3" transform="translate(200 0)"/>
     <use xlink:href="#SimSun-440f" transform="translate(250 0)"/>
     <use xlink:href="#SimSun-445a" transform="translate(350 0)"/>
     <use xlink:href="#SimSun-43e" transform="translate(450 0)"/>
     <use xlink:href="#SimSun-3ff2" transform="translate(550 0)"/>
     <use xlink:href="#SimSun-237b" transform="translate(650 0)"/>
    </g>
   </g>
   <g id="patch_12">
    <path d="M 142.992 178.58304 
Q 142.992 189.9432 142.992 200.408933 
" style="fill: none; stroke: #000000; stroke-width: 0.8; stroke-linecap: round"/>
    <path d="M 144.992 196.408933 
L 142.992 200.408933 
L 140.992 196.408933 
" style="fill: none; stroke: #000000; stroke-width: 0.8; stroke-linecap: round"/>
   </g>
   <g id="text_4">
    <!-- 运动解算 -->
    <g transform="translate(120.992 224.752529) scale(0.11 -0.11)">
     <defs>
      <path id="SimSun-4600" d="M 2450 4475 
L 4625 4475 
L 4975 4800 
L 5425 4325 
L 3125 4325 
Q 2950 4325 2675 4250 
L 2450 4475 
z
M 2300 1225 
Q 2550 1275 2775 1550 
Q 3000 1825 3250 2250 
Q 3500 2675 3600 3025 
L 2700 3025 
Q 2500 3025 2225 2950 
L 2000 3175 
L 5100 3175 
L 5475 3550 
L 5950 3025 
L 3675 3025 
L 4125 2700 
Q 3925 2700 3550 2175 
Q 3150 1625 2700 1175 
L 4925 1275 
Q 4750 1650 4375 2075 
L 4450 2125 
Q 4975 1800 5262 1512 
Q 5550 1225 5512 987 
Q 5475 750 5400 687 
Q 5325 625 5275 625 
Q 5200 625 5150 775 
Q 5075 975 5000 1150 
Q 3700 1025 3262 925 
Q 2825 825 2600 675 
L 2300 1225 
z
M 825 4925 
L 900 4975 
Q 1400 4725 1575 4550 
Q 1750 4375 1725 4187 
Q 1700 4000 1600 3912 
Q 1500 3825 1450 3825 
Q 1350 3825 1300 4075 
Q 1225 4425 825 4925 
z
M 1600 825 
Q 1825 575 2225 350 
Q 2625 125 3387 87 
Q 4150 50 4837 75 
Q 5525 100 6150 200 
L 6150 100 
Q 5625 -50 5625 -325 
Q 4500 -325 3762 -300 
Q 3025 -275 2562 -87 
Q 2100 100 1825 375 
Q 1550 625 1425 650 
Q 1300 675 1012 375 
Q 725 75 600 -100 
L 250 250 
Q 650 575 1275 825 
L 1275 2850 
L 1100 2850 
Q 775 2850 500 2775 
L 275 3000 
L 1225 3000 
L 1400 3275 
L 1825 2950 
L 1600 2775 
L 1600 825 
z
" transform="scale(0.015625)"/>
      <path id="SimSun-8d8" d="M 5950 3500 
L 5750 3325 
Q 5725 675 5587 137 
Q 5450 -400 4850 -575 
Q 4825 -300 4075 25 
L 4100 150 
Q 4625 25 4925 25 
Q 5075 25 5162 87 
Q 5250 150 5312 737 
Q 5375 1325 5425 3425 
L 4375 3425 
Q 4350 2475 4162 1725 
Q 3975 975 3487 400 
Q 3000 -175 2200 -625 
L 2125 -550 
Q 2925 0 3312 562 
Q 3700 1125 3862 1825 
Q 4025 2525 4050 3425 
L 3600 3425 
L 3300 3375 
L 3100 3575 
L 4050 3575 
Q 4050 4625 4025 5175 
L 4550 4925 
L 4375 4750 
L 4375 3575 
L 5375 3575 
L 5575 3800 
L 5950 3500 
z
M 475 4325 
L 2275 4325 
L 2575 4625 
L 3025 4175 
L 1200 4175 
Q 925 4175 700 4100 
L 475 4325 
z
M 275 3050 
L 2625 3050 
L 2925 3350 
L 3375 2900 
L 1700 2900 
L 2100 2600 
Q 1850 2500 1450 1875 
Q 1025 1250 675 875 
L 2650 1100 
Q 2400 1600 2125 2025 
L 2200 2075 
Q 3075 1275 3125 987 
Q 3175 700 3062 587 
Q 2950 475 2925 475 
Q 2850 475 2825 600 
Q 2775 775 2700 975 
Q 875 650 600 350 
L 325 850 
Q 600 925 1025 1687 
Q 1450 2450 1550 2900 
L 750 2900 
L 475 2850 
L 275 3050 
z
" transform="scale(0.015625)"/>
      <path id="SimSun-4013" d="M 5700 4550 
Q 5675 3850 5637 3625 
Q 5600 3400 5500 3262 
Q 5400 3125 5075 3025 
Q 5100 3250 4475 3450 
L 4500 3550 
Q 4875 3475 5062 3462 
Q 5250 3450 5300 3625 
Q 5350 3800 5375 4625 
L 4375 4625 
Q 4350 4100 4075 3675 
Q 3800 3250 3075 2900 
L 3000 2975 
Q 3550 3325 3775 3787 
Q 4000 4250 4000 4625 
L 3650 4625 
L 3425 4550 
L 3200 4775 
L 5350 4775 
L 5550 5000 
L 5900 4700 
L 5700 4550 
z
M 4400 -625 
Q 4425 -100 4425 975 
L 3775 975 
Q 3450 975 3175 900 
L 2950 1125 
L 4425 1125 
L 4425 2025 
L 3750 2025 
Q 3400 1525 3100 1275 
L 3050 1325 
Q 3300 1700 3487 2200 
Q 3675 2700 3725 3000 
L 4200 2700 
L 3975 2575 
L 3800 2175 
L 4425 2175 
Q 4425 2825 4400 3175 
L 4950 2900 
L 4750 2750 
L 4750 2175 
L 5200 2175 
L 5475 2450 
L 5875 2025 
L 4750 2025 
L 4750 1125 
L 5450 1125 
L 5750 1425 
L 6175 975 
L 4750 975 
Q 4750 -50 4775 -450 
L 4400 -625 
z
M 1475 5200 
L 1975 4875 
L 1750 4775 
Q 1600 4525 1500 4275 
L 2175 4275 
L 2400 4500 
L 2775 4125 
Q 2550 4025 2437 3912 
Q 2325 3800 1975 3375 
L 2525 3375 
L 2750 3600 
L 3075 3275 
L 2875 3125 
L 2875 -200 
Q 2875 -325 2800 -425 
Q 2725 -525 2500 -625 
Q 2500 -425 2075 -250 
L 2075 -150 
Q 2375 -200 2475 -200 
Q 2575 -200 2575 -75 
L 2575 1300 
L 2000 1300 
Q 2000 400 2025 -50 
L 1675 -250 
Q 1700 250 1700 1300 
L 1125 1300 
Q 1075 150 275 -625 
L 225 -550 
Q 575 -50 687 412 
Q 800 875 812 1137 
Q 825 1400 825 3250 
Q 600 3000 350 2775 
L 300 2850 
Q 850 3550 1112 4162 
Q 1375 4775 1475 5200 
z
M 1125 2275 
L 1125 1450 
L 1700 1450 
L 1700 2275 
L 1125 2275 
z
M 1125 3225 
L 1125 2425 
L 1700 2425 
L 1700 3225 
L 1125 3225 
z
M 2000 3225 
L 2000 2425 
L 2575 2425 
L 2575 3225 
L 2000 3225 
z
M 2000 2275 
L 2000 1450 
L 2575 1450 
L 2575 2275 
L 2000 2275 
z
M 1450 4125 
Q 1275 3825 1050 3475 
L 1175 3375 
L 1850 3375 
L 2200 4125 
L 1450 4125 
z
" transform="scale(0.015625)"/>
      <path id="SimSun-31c7" d="M 2675 1525 
Q 2650 1125 2600 750 
L 3825 750 
L 3825 1525 
L 2675 1525 
z
M 4900 2075 
Q 4900 1875 4925 1425 
L 4550 1275 
L 4550 1525 
L 4175 1525 
L 4175 775 
L 5300 775 
L 5650 1100 
L 6100 625 
L 4175 625 
Q 4175 -225 4200 -475 
L 3800 -650 
Q 3825 100 3825 600 
L 2575 600 
Q 2400 50 1837 -250 
Q 1275 -550 625 -650 
L 600 -575 
Q 1325 -325 1687 -62 
Q 2050 200 2200 600 
L 1125 600 
Q 800 600 525 525 
L 300 750 
L 2225 750 
Q 2275 1100 2300 1525 
L 1850 1525 
L 1850 1325 
L 1500 1200 
Q 1525 1975 1512 2787 
Q 1500 3600 1475 3775 
L 1850 3575 
L 4525 3575 
L 4675 3800 
L 5075 3525 
L 4900 3375 
L 4900 2075 
z
M 1850 3425 
L 1850 2975 
L 4550 2975 
L 4550 3425 
L 1850 3425 
z
M 1850 2825 
L 1850 2350 
L 4550 2350 
L 4550 2825 
L 1850 2825 
z
M 1850 2200 
L 1850 1675 
L 4550 1675 
L 4550 2200 
L 1850 2200 
z
M 1575 5275 
L 2075 5000 
Q 1925 4925 1837 4825 
Q 1750 4725 1600 4500 
L 2700 4500 
L 3000 4800 
L 3400 4350 
L 2125 4350 
Q 2650 4075 2587 3887 
Q 2525 3700 2462 3662 
Q 2400 3625 2350 3625 
Q 2275 3625 2250 3712 
Q 2225 3800 2200 3975 
Q 2150 4125 1950 4350 
L 1525 4350 
Q 1275 3975 1050 3725 
Q 825 3475 475 3225 
L 425 3300 
Q 650 3525 950 3950 
Q 1250 4375 1575 5275 
z
M 4000 5250 
L 4450 4950 
Q 4325 4925 4200 4775 
Q 4075 4625 3975 4475 
L 5325 4475 
L 5625 4750 
L 6000 4325 
L 4675 4325 
Q 5300 4125 5300 3937 
Q 5300 3750 5212 3675 
Q 5125 3600 5100 3600 
Q 5050 3600 4987 3712 
Q 4925 3825 4850 3962 
Q 4775 4100 4500 4325 
L 3900 4325 
Q 3725 4150 3575 3975 
Q 3400 3775 3225 3625 
L 3150 3675 
Q 3450 4050 3712 4562 
Q 3975 5075 4000 5250 
z
" transform="scale(0.015625)"/>
     </defs>
     <use xlink:href="#SimSun-4600"/>
     <use xlink:href="#SimSun-8d8" transform="translate(100 0)"/>
     <use xlink:href="#SimSun-4013" transform="translate(200 0)"/>
     <use xlink:href="#SimSun-31c7" transform="translate(300 0)"/>
    </g>
   </g>
   <g id="patch_13">
    <path d="M 142.992 240.25248 
Q 142.992 251.61264 142.992 262.078373 
" style="fill: none; stroke: #000000; stroke-width: 0.8; stroke-linecap: round"/>
    <path d="M 144.992 258.078373 
L 142.992 262.078373 
L 140.992 258.078373 
" style="fill: none; stroke: #000000; stroke-width: 0.8; stroke-linecap: round"/>
   </g>
   <g id="text_5">
    <!-- 电机命令网关 -->
    <g transform="translate(109.992 286.400485) scale(0.11 -0.11)">
     <defs>
      <path id="SimSun-2b65" d="M 2875 3900 
Q 2875 4625 2850 5225 
L 3425 4950 
L 3225 4775 
L 3225 3900 
L 4750 3900 
L 5000 4150 
L 5350 3800 
L 5125 3625 
Q 5125 1625 5150 1125 
L 4775 950 
L 4775 1250 
L 3225 1250 
L 3225 125 
Q 3225 -150 3525 -150 
L 5250 -150 
Q 5475 -125 5500 112 
Q 5525 350 5550 1075 
L 5675 1075 
Q 5675 450 5762 250 
Q 5850 50 6025 -75 
Q 5925 -275 5775 -362 
Q 5625 -450 5350 -450 
L 3400 -450 
Q 2875 -450 2875 50 
L 2875 1250 
L 1375 1250 
L 1375 900 
L 1000 725 
Q 1025 1575 1025 2475 
Q 1025 3375 1000 4125 
L 1400 3900 
L 2875 3900 
z
M 1375 3750 
L 1375 2675 
L 2875 2675 
L 2875 3750 
L 1375 3750 
z
M 3225 3750 
L 3225 2675 
L 4775 2675 
L 4775 3750 
L 3225 3750 
z
M 1375 2525 
L 1375 1400 
L 2875 1400 
L 2875 2525 
L 1375 2525 
z
M 3225 2525 
L 3225 1400 
L 4775 1400 
L 4775 2525 
L 3225 2525 
z
" transform="scale(0.015625)"/>
      <path id="SimSun-1d6a" d="M 3400 4425 
L 3400 2250 
Q 3400 400 2000 -575 
L 1925 -500 
Q 3050 525 3050 2250 
L 3050 3450 
Q 3050 4125 3025 4825 
L 3400 4575 
L 4550 4575 
L 4775 4825 
L 5175 4475 
L 4925 4325 
L 4925 250 
Q 4925 0 5175 0 
L 5475 0 
Q 5600 0 5650 200 
Q 5700 400 5725 1100 
L 5850 1100 
Q 5850 550 5900 362 
Q 5950 175 6150 75 
Q 6000 -225 5837 -262 
Q 5675 -300 5525 -300 
L 5000 -300 
Q 4575 -300 4575 100 
L 4575 4425 
L 3400 4425 
z
M 1725 2700 
Q 1725 50 1750 -500 
L 1350 -675 
Q 1375 425 1375 2375 
Q 1000 1325 275 525 
L 225 600 
Q 975 1775 1350 3500 
L 750 3500 
L 525 3450 
L 325 3650 
L 1375 3650 
Q 1375 4525 1350 5275 
L 1900 5050 
L 1725 4875 
L 1725 3650 
L 2075 3650 
L 2350 3925 
L 2775 3500 
L 1725 3500 
L 1725 2825 
Q 2325 2600 2512 2475 
Q 2700 2350 2700 2150 
Q 2700 2025 2662 1900 
Q 2625 1775 2600 1775 
Q 2525 1775 2375 2025 
Q 2150 2375 1725 2700 
z
" transform="scale(0.015625)"/>
      <path id="SimSun-aad" d="M 1775 3150 
L 3650 3150 
L 3950 3450 
L 4400 3000 
L 2550 3000 
Q 2225 3000 2000 2925 
L 1775 3150 
z
M 1450 2125 
L 1450 575 
L 2400 575 
L 2400 2125 
L 1450 2125 
z
M 1100 -250 
Q 1125 525 1125 1125 
Q 1125 1725 1100 2500 
L 1450 2275 
L 2350 2275 
L 2525 2500 
L 2900 2200 
L 2725 2050 
Q 2725 550 2750 150 
L 2400 0 
L 2400 425 
L 1450 425 
L 1450 -100 
L 1100 -250 
z
M 3775 2175 
L 3775 -450 
L 3425 -625 
Q 3450 75 3450 1050 
Q 3450 2025 3425 2550 
L 3775 2325 
L 4825 2325 
L 5000 2575 
L 5400 2275 
L 5200 2100 
L 5200 525 
Q 5225 75 4700 -125 
Q 4700 150 4025 325 
L 4025 425 
Q 4550 375 4712 375 
Q 4875 375 4875 700 
L 4875 2175 
L 3775 2175 
z
M 2975 5275 
L 3475 4900 
L 3250 4725 
Q 3750 4025 4450 3625 
Q 5150 3225 6125 3075 
L 6125 2975 
Q 5700 2950 5550 2625 
Q 4650 3050 4112 3500 
Q 3575 3950 3150 4650 
Q 2600 3900 1962 3362 
Q 1325 2825 275 2425 
L 225 2525 
Q 1250 2975 1962 3750 
Q 2675 4525 2975 5275 
z
" transform="scale(0.015625)"/>
      <path id="SimSun-514" d="M 3050 5275 
L 3600 4975 
L 3375 4850 
Q 3875 3900 4575 3300 
Q 5275 2700 6100 2525 
L 6100 2425 
Q 5675 2400 5575 2125 
Q 4825 2525 4287 3112 
Q 3750 3700 3300 4725 
Q 2650 3625 2200 3187 
Q 1750 2750 1312 2462 
Q 875 2175 350 1925 
L 275 2000 
Q 775 2275 1300 2725 
Q 1825 3175 2287 3850 
Q 2750 4525 3050 5275 
z
M 2700 3425 
Q 3300 3100 3500 2912 
Q 3700 2725 3700 2575 
Q 3700 2525 3662 2412 
Q 3625 2300 3500 2200 
Q 3375 2100 3275 2425 
Q 3175 2725 2650 3350 
L 2700 3425 
z
M 3325 350 
Q 3625 800 4350 1825 
L 2100 1825 
Q 1775 1825 1500 1750 
L 1275 1975 
L 4350 1975 
L 4675 2300 
L 5150 1800 
Q 4850 1750 4462 1400 
Q 4075 1050 3450 300 
Q 3975 25 4025 -150 
Q 4075 -325 4075 -350 
Q 4075 -450 4025 -562 
Q 3975 -675 3925 -675 
Q 3850 -675 3725 -525 
Q 3500 -250 2962 162 
Q 2425 575 1875 850 
L 1900 950 
Q 2800 650 3325 350 
z
" transform="scale(0.015625)"/>
      <path id="SimSun-3581" d="M 2400 2725 
Q 2750 2225 2850 2025 
Q 2950 1825 2925 1612 
Q 2900 1400 2825 1337 
Q 2750 1275 2725 1275 
Q 2625 1275 2575 1600 
Q 2475 2000 2275 2375 
Q 1900 1575 1375 925 
L 1300 975 
Q 1725 1675 2075 2675 
Q 1775 3225 1375 3750 
L 1450 3800 
Q 1875 3375 2200 2975 
Q 2400 3475 2525 4100 
L 3000 3775 
L 2825 3625 
Q 2575 3075 2400 2725 
z
M 4250 2575 
Q 4700 2025 4812 1787 
Q 4925 1550 4900 1375 
Q 4875 1200 4800 1112 
Q 4725 1025 4700 1025 
Q 4600 1025 4500 1375 
Q 4375 1800 4100 2250 
Q 3600 1325 3000 775 
L 2950 850 
Q 3550 1600 3900 2525 
Q 3500 3175 3100 3700 
L 3175 3750 
Q 3675 3225 4025 2800 
Q 4275 3450 4375 4100 
L 4850 3775 
Q 4725 3675 4575 3337 
Q 4425 3000 4250 2575 
z
M 4350 25 
L 4350 125 
Q 4900 100 5075 112 
Q 5250 125 5225 450 
L 5225 4600 
L 1125 4600 
L 1125 -275 
L 750 -475 
Q 775 500 775 2525 
Q 775 4550 750 5000 
L 1125 4750 
L 5175 4750 
L 5350 5025 
L 5775 4725 
L 5575 4550 
L 5575 175 
Q 5600 -250 5050 -475 
Q 5025 -125 4350 25 
z
" transform="scale(0.015625)"/>
      <path id="SimSun-7a3" d="M 1750 5100 
L 1800 5175 
Q 2300 4900 2550 4675 
Q 2800 4450 2800 4250 
Q 2800 4125 2712 3975 
Q 2625 3825 2600 3825 
Q 2500 3825 2375 4175 
Q 2175 4675 1750 5100 
z
M 3375 3500 
Q 3350 2850 3300 2150 
L 5200 2150 
L 5575 2525 
L 6100 2000 
L 3625 2000 
Q 3850 1350 4425 750 
Q 5000 150 6100 -150 
L 6100 -225 
Q 5700 -250 5550 -550 
Q 4875 -200 4312 387 
Q 3750 975 3475 2000 
L 3275 2000 
Q 3050 1075 2312 412 
Q 1575 -250 375 -625 
L 350 -525 
Q 1625 25 2175 687 
Q 2725 1350 2900 2000 
L 1175 2000 
Q 850 2000 575 1925 
L 350 2150 
L 2925 2150 
Q 2975 2700 2975 3500 
L 1500 3500 
Q 1175 3500 900 3425 
L 675 3650 
L 3500 3650 
Q 3700 4000 3875 4462 
Q 4050 4925 4125 5225 
L 4725 4825 
L 4425 4700 
Q 4000 4050 3675 3650 
L 4975 3650 
L 5325 4000 
L 5825 3500 
L 3375 3500 
z
" transform="scale(0.015625)"/>
     </defs>
     <use xlink:href="#SimSun-2b65"/>
     <use xlink:href="#SimSun-1d6a" transform="translate(100 0)"/>
     <use xlink:href="#SimSun-aad" transform="translate(200 0)"/>
     <use xlink:href="#SimSun-514" transform="translate(300 0)"/>
     <use xlink:href="#SimSun-3581" transform="translate(400 0)"/>
     <use xlink:href="#SimSun-7a3" transform="translate(500 0)"/>
    </g>
   </g>
   <g id="text_6">
    <!-- 独立监督进程 -->
    <g transform="translate(374.592 286.421969) scale(0.11 -0.11)">
     <defs>
      <path id="SimSun-291c" d="M 4375 300 
L 5475 450 
Q 5350 700 5000 1125 
L 5075 1200 
Q 5900 550 5975 337 
Q 6050 125 6050 0 
Q 6050 -150 5962 -250 
Q 5875 -350 5825 -350 
Q 5775 -350 5725 -225 
Q 5650 0 5525 325 
Q 4475 100 3675 -87 
Q 2875 -275 2700 -400 
L 2475 125 
Q 3075 150 4025 250 
L 4025 1750 
L 3175 1750 
L 3175 1475 
L 2800 1275 
Q 2825 1950 2825 2637 
Q 2825 3325 2800 4000 
L 3175 3750 
L 4025 3750 
Q 4025 4800 4000 5200 
L 4550 4925 
L 4375 4750 
L 4375 3750 
L 5175 3750 
L 5425 4000 
L 5800 3625 
L 5575 3475 
Q 5575 2000 5600 1575 
L 5225 1375 
L 5225 1750 
L 4375 1750 
L 4375 300 
z
M 3175 3600 
L 3175 1900 
L 4025 1900 
L 4025 3600 
L 3175 3600 
z
M 4375 3600 
L 4375 1900 
L 5225 1900 
L 5225 3600 
L 4375 3600 
z
M 625 4875 
Q 1275 4525 1700 4125 
Q 2175 4800 2275 5100 
L 2725 4800 
Q 2600 4725 2362 4462 
Q 2125 4200 1875 3875 
Q 2300 2925 2312 1750 
Q 2325 575 2150 150 
Q 1975 -275 1450 -525 
Q 1350 -200 850 -25 
L 850 75 
Q 1175 0 1375 0 
Q 1525 0 1662 62 
Q 1800 125 1887 650 
Q 1975 1175 1925 2525 
Q 1300 1450 275 775 
L 250 875 
Q 1200 1775 1800 3000 
Q 1725 3375 1625 3675 
Q 1075 3150 375 2800 
L 325 2875 
Q 1000 3375 1500 3925 
Q 1075 4425 575 4800 
L 625 4875 
z
" transform="scale(0.015625)"/>
      <path id="SimSun-30fb" d="M 2600 5225 
Q 3200 4925 3337 4762 
Q 3475 4600 3475 4450 
Q 3475 4325 3375 4162 
Q 3275 4000 3225 4000 
Q 3125 4000 3050 4275 
Q 2925 4700 2550 5150 
L 2600 5225 
z
M 650 3900 
L 4925 3900 
L 5300 4275 
L 5800 3750 
L 1475 3750 
Q 1150 3750 875 3675 
L 650 3900 
z
M 1800 3225 
Q 2425 2275 2575 1900 
Q 2725 1525 2725 1275 
Q 2725 1175 2687 1012 
Q 2650 850 2487 750 
Q 2325 650 2300 1050 
Q 2250 1450 2112 1987 
Q 1975 2525 1700 3175 
L 1800 3225 
z
M 4625 2925 
Q 4100 1350 3575 150 
L 5275 150 
L 5650 550 
L 6150 0 
L 1075 0 
Q 750 0 475 -75 
L 250 150 
L 3400 150 
Q 4125 2250 4225 3475 
L 4900 3100 
L 4625 2925 
z
" transform="scale(0.015625)"/>
      <path id="SimSun-2d01" d="M 3875 1525 
L 3875 -125 
L 4775 -125 
L 4775 1525 
L 3875 1525 
z
M 1075 -125 
Q 1075 1275 1050 1925 
L 1425 1675 
L 4725 1675 
L 4975 1925 
L 5325 1575 
L 5100 1400 
L 5100 -125 
L 5350 -125 
L 5675 200 
L 6125 -275 
L 1100 -275 
Q 775 -275 500 -350 
L 275 -125 
L 1075 -125 
z
M 1400 1525 
L 1400 -125 
L 2325 -125 
L 2325 1525 
L 1400 1525 
z
M 2650 1525 
L 2650 -125 
L 3550 -125 
L 3550 1525 
L 2650 1525 
z
M 1325 4375 
Q 1325 2925 1350 2400 
L 975 2225 
Q 1000 3150 1000 3662 
Q 1000 4175 975 4825 
L 1500 4575 
L 1325 4375 
z
M 2500 4725 
Q 2500 2575 2525 2025 
L 2150 1850 
Q 2175 2675 2175 3512 
Q 2175 4350 2150 5175 
L 2700 4925 
L 2500 4725 
z
M 4075 4675 
Q 3950 4275 3875 4100 
L 5050 4100 
L 5375 4425 
L 5825 3950 
L 3825 3950 
Q 3350 2900 2850 2350 
L 2775 2400 
Q 3200 3175 3412 3825 
Q 3625 4475 3750 5175 
L 4325 4850 
L 4075 4675 
z
M 4175 3625 
Q 4875 3150 5025 2912 
Q 5175 2675 5175 2525 
Q 5175 2400 5100 2287 
Q 5025 2175 4975 2175 
Q 4875 2175 4775 2450 
Q 4625 2850 4462 3087 
Q 4300 3325 4125 3550 
L 4175 3625 
z
" transform="scale(0.015625)"/>
      <path id="SimSun-2d93" d="M 1825 450 
L 1825 -50 
L 4525 -50 
L 4525 450 
L 1825 450 
z
M 1475 -600 
Q 1500 25 1500 725 
Q 1500 1425 1475 2075 
L 1875 1875 
L 4475 1875 
L 4725 2125 
L 5075 1775 
L 4850 1625 
Q 4850 200 4875 -375 
L 4525 -500 
L 4525 -200 
L 1825 -200 
L 1825 -475 
L 1475 -600 
z
M 1825 1725 
L 1825 1225 
L 4525 1225 
L 4525 1725 
L 1825 1725 
z
M 1825 1075 
L 1825 600 
L 4525 600 
L 4525 1075 
L 1825 1075 
z
M 1175 3450 
L 1550 3150 
Q 1375 3075 1125 2850 
Q 850 2600 475 2300 
L 425 2375 
Q 975 3000 1175 3450 
z
M 2425 3375 
Q 2975 3175 3125 3050 
Q 3275 2925 3250 2750 
Q 3225 2575 3150 2537 
Q 3075 2500 2950 2750 
Q 2825 2975 2375 3300 
L 2425 3375 
z
M 5725 4525 
L 5475 4400 
Q 5050 3550 4650 3125 
Q 5200 2575 6025 2400 
L 6025 2325 
Q 5700 2300 5550 2050 
Q 4925 2400 4450 2950 
Q 4100 2600 3675 2375 
Q 3250 2150 2700 2000 
L 2675 2100 
Q 3125 2275 3562 2575 
Q 4000 2875 4250 3175 
Q 3850 3825 3725 4500 
L 3525 4425 
L 3325 4650 
L 5100 4650 
L 5350 4900 
L 5725 4525 
z
M 3875 4500 
Q 4075 3850 4475 3375 
Q 4875 3850 5125 4500 
L 3875 4500 
z
M 1800 3750 
L 2300 3575 
L 2125 3425 
Q 2125 2575 2150 2250 
L 1775 2075 
Q 1800 3175 1800 3750 
z
M 2125 3700 
L 1800 3700 
L 1200 3700 
Q 875 3700 600 3625 
L 375 3850 
L 1800 3850 
Q 1800 4850 1775 5250 
L 2325 5000 
L 2125 4825 
L 2125 4500 
L 2625 4500 
L 2875 4750 
L 3250 4350 
L 2125 4350 
L 2125 3850 
L 3025 3850 
L 3275 4100 
L 3650 3700 
L 2125 3700 
z
" transform="scale(0.015625)"/>
      <path id="SimSun-460b" d="M 3425 3650 
L 3425 2250 
L 4425 2250 
L 4425 3650 
L 3425 3650 
z
M 3100 2250 
L 3100 3650 
L 2850 3650 
Q 2525 3650 2250 3575 
L 2025 3800 
L 3100 3800 
Q 3100 4475 3075 5150 
L 3650 4850 
L 3425 4675 
L 3425 3800 
L 4425 3800 
Q 4425 4500 4400 5150 
L 4975 4875 
L 4750 4675 
L 4750 3800 
L 5150 3800 
L 5450 4100 
L 5875 3650 
L 4750 3650 
L 4750 2250 
L 5325 2250 
L 5625 2550 
L 6050 2100 
L 4750 2100 
Q 4750 650 4775 300 
L 4400 125 
Q 4425 625 4425 2100 
L 3425 2100 
Q 3350 925 2150 300 
L 2100 375 
Q 3050 1075 3100 2100 
L 2700 2100 
Q 2375 2100 2100 2025 
L 1875 2250 
L 3100 2250 
z
M 875 4900 
L 925 4950 
Q 1400 4700 1587 4512 
Q 1775 4325 1750 4150 
Q 1725 3975 1625 3900 
Q 1525 3825 1500 3825 
Q 1400 3825 1325 4125 
Q 1225 4500 875 4900 
z
M 1575 650 
Q 1850 425 2237 212 
Q 2625 0 3387 -37 
Q 4150 -75 4837 -50 
Q 5525 -25 6150 50 
L 6150 -50 
Q 5575 -200 5625 -450 
Q 4475 -450 3762 -425 
Q 3050 -400 2650 -275 
Q 2250 -150 1875 200 
Q 1500 525 1425 537 
Q 1350 550 1150 350 
Q 950 150 600 -375 
L 275 -75 
Q 700 275 1250 675 
L 1250 2775 
L 1025 2775 
Q 700 2775 425 2700 
L 200 2925 
L 1175 2925 
L 1450 3200 
L 1800 2850 
L 1575 2675 
L 1575 650 
z
" transform="scale(0.015625)"/>
      <path id="SimSun-303b" d="M 3050 2750 
Q 3075 3325 3075 3887 
Q 3075 4450 3050 5000 
L 3425 4775 
L 5250 4775 
L 5475 5000 
L 5825 4650 
L 5600 4500 
Q 5600 3350 5625 3000 
L 5275 2875 
L 5275 3175 
L 3400 3175 
L 3400 2900 
L 3050 2750 
z
M 3400 4625 
L 3400 3325 
L 5275 3325 
L 5275 4625 
L 3400 4625 
z
M 2725 2425 
L 5325 2425 
L 5600 2700 
L 6000 2275 
L 4475 2275 
L 4475 1200 
L 5200 1200 
L 5475 1475 
L 5875 1050 
L 4475 1050 
L 4475 -100 
L 5450 -100 
L 5750 200 
L 6175 -250 
L 3175 -250 
Q 2850 -250 2575 -325 
L 2350 -100 
L 4150 -100 
L 4150 1050 
L 3700 1050 
Q 3375 1050 3100 975 
L 2875 1200 
L 4150 1200 
L 4150 2275 
L 3550 2275 
Q 3225 2275 2950 2200 
L 2725 2425 
z
M 1475 4525 
Q 1150 4475 425 4400 
L 425 4500 
Q 900 4575 1537 4775 
Q 2175 4975 2375 5150 
L 2700 4700 
Q 2475 4700 1800 4575 
L 1800 3325 
L 2175 3325 
L 2450 3600 
L 2850 3175 
L 1800 3175 
L 1800 2700 
Q 2325 2475 2487 2312 
Q 2650 2150 2650 2000 
Q 2650 1875 2587 1762 
Q 2525 1650 2475 1650 
Q 2400 1650 2300 1900 
Q 2150 2275 1800 2600 
Q 1800 0 1825 -450 
L 1450 -625 
Q 1475 325 1475 2275 
Q 1025 1125 300 350 
L 250 425 
Q 750 1200 1025 1925 
Q 1300 2650 1400 3175 
L 1050 3175 
Q 725 3175 450 3100 
L 225 3325 
L 1475 3325 
L 1475 4525 
z
" transform="scale(0.015625)"/>
     </defs>
     <use xlink:href="#SimSun-291c"/>
     <use xlink:href="#SimSun-30fb" transform="translate(100 0)"/>
     <use xlink:href="#SimSun-2d01" transform="translate(200 0)"/>
     <use xlink:href="#SimSun-2d93" transform="translate(300 0)"/>
     <use xlink:href="#SimSun-460b" transform="translate(400 0)"/>
     <use xlink:href="#SimSun-303b" transform="translate(500 0)"/>
    </g>
   </g>
   <g id="text_7">
    <!-- 虚拟后端 / TCP 后端 -->
    <g transform="translate(355.342 208.480761) scale(0.11 -0.11)">
     <defs>
      <path id="SimSun-3c8a" d="M 1625 1675 
Q 2175 1125 2287 912 
Q 2400 700 2400 600 
Q 2400 475 2300 350 
Q 2200 225 2150 225 
Q 2100 225 2075 325 
Q 2025 500 1937 775 
Q 1850 1050 1575 1625 
L 1625 1675 
z
M 1150 -100 
L 2775 -100 
Q 2775 1550 2750 1925 
L 3325 1650 
L 3100 1500 
L 3100 -100 
L 3900 -100 
Q 3900 1500 3875 1875 
L 4450 1575 
L 4225 1450 
L 4225 450 
Q 4500 700 4787 1025 
Q 5075 1350 5275 1725 
L 5700 1325 
L 5475 1275 
Q 4875 725 4225 300 
L 4225 -100 
L 5150 -100 
L 5525 275 
L 6050 -250 
L 1850 -250 
Q 1650 -250 1375 -325 
L 1150 -100 
z
M 5125 3175 
L 5400 3725 
L 1450 3725 
Q 1450 2275 1425 1675 
Q 1400 1075 1150 500 
Q 900 -75 350 -650 
L 275 -575 
Q 650 -100 862 550 
Q 1075 1200 1100 2100 
Q 1125 3000 1075 4100 
L 1475 3875 
L 2900 3875 
Q 2900 4900 2875 5250 
L 3475 4975 
L 3225 4800 
L 3225 4525 
L 4600 4525 
L 4875 4800 
L 5300 4375 
L 3225 4375 
L 3225 3875 
L 5375 3875 
L 5600 4150 
L 6050 3700 
Q 5675 3700 5200 3125 
L 5125 3175 
z
M 3250 2575 
Q 3250 2350 3525 2325 
L 4950 2325 
Q 5075 2350 5137 2450 
Q 5200 2550 5250 2925 
L 5350 2925 
Q 5350 2675 5375 2537 
Q 5400 2400 5600 2325 
Q 5450 2075 5125 2075 
L 3350 2075 
Q 2925 2075 2925 2425 
L 2925 2800 
L 2025 2725 
L 1800 2650 
L 1525 2850 
L 2925 2950 
Q 2925 3450 2900 3700 
L 3450 3475 
L 3250 3300 
L 3250 2975 
L 4275 3075 
L 4525 3350 
L 5000 2975 
L 3250 2825 
L 3250 2575 
z
" transform="scale(0.015625)"/>
      <path id="SimSun-190f" d="M 3150 1050 
L 4250 1900 
L 4325 1825 
Q 4000 1500 3625 1087 
Q 3250 675 3050 300 
L 2675 675 
Q 2800 800 2800 1125 
L 2800 3125 
Q 2800 3850 2775 4650 
L 3375 4350 
L 3150 4175 
L 3150 1050 
z
M 5050 1175 
Q 5725 700 5887 450 
Q 6050 200 6000 -12 
Q 5950 -225 5850 -325 
Q 5750 -425 5625 25 
Q 5475 475 5000 1025 
Q 4375 -225 2625 -675 
L 2600 -575 
Q 3250 -300 3712 37 
Q 4175 375 4500 912 
Q 4825 1450 4850 2400 
Q 4875 3350 4875 3750 
Q 4875 4525 4825 5000 
L 5500 4675 
L 5250 4475 
Q 5250 3650 5237 2775 
Q 5225 1900 5050 1175 
z
M 1375 3850 
Q 1375 4875 1350 5225 
L 1925 4950 
L 1725 4750 
L 1725 3850 
L 2050 3850 
L 2325 4125 
L 2750 3700 
L 1725 3700 
L 1725 2525 
L 2575 2975 
L 2625 2875 
L 1725 2275 
L 1725 100 
Q 1700 -350 1175 -550 
Q 1200 -275 450 0 
L 450 100 
Q 1000 0 1200 12 
Q 1400 25 1375 350 
L 1375 2050 
Q 675 1600 600 1425 
L 250 1875 
Q 550 1950 1375 2375 
L 1375 3700 
L 775 3700 
L 450 3650 
L 250 3850 
L 1375 3850 
z
M 3575 4775 
Q 4050 4375 4200 4150 
Q 4350 3925 4350 3775 
Q 4350 3700 4312 3587 
Q 4275 3475 4200 3412 
Q 4125 3350 4100 3350 
Q 4000 3350 3950 3700 
Q 3850 4125 3500 4725 
L 3575 4775 
z
" transform="scale(0.015625)"/>
      <path id="SimSun-a3e" d="M 300 -550 
Q 925 225 1112 925 
Q 1300 1625 1312 2612 
Q 1325 3600 1300 4650 
L 1700 4400 
Q 3125 4525 4050 4725 
Q 4975 4925 5275 5100 
L 5625 4625 
Q 5300 4650 4150 4500 
Q 2975 4325 1675 4250 
L 1675 3225 
L 5150 3225 
L 5475 3550 
L 5925 3075 
L 1675 3075 
Q 1700 1575 1375 787 
Q 1050 0 375 -625 
L 300 -550 
z
M 5225 1775 
L 5225 500 
Q 5225 125 5250 -175 
L 4875 -325 
L 4875 125 
L 2625 125 
L 2625 -275 
L 2225 -450 
Q 2275 125 2275 912 
Q 2275 1700 2250 2250 
L 2675 2025 
L 4825 2025 
L 5075 2275 
L 5425 1925 
L 5225 1775 
z
M 2625 1875 
L 2625 275 
L 4875 275 
L 4875 1875 
L 2625 1875 
z
" transform="scale(0.015625)"/>
      <path id="SimSun-311f" d="M 2775 3775 
Q 2775 4475 2750 4925 
L 3250 4675 
L 3075 4475 
L 3075 3725 
L 4000 3725 
Q 4000 4750 3975 5250 
L 4475 4975 
L 4300 4800 
L 4300 3725 
L 5225 3725 
Q 5225 4225 5200 4875 
L 5700 4625 
L 5525 4450 
Q 5525 3775 5550 3450 
L 5225 3300 
L 5225 3575 
L 3075 3575 
L 2875 3350 
L 2575 3625 
L 2775 3775 
z
M 3650 2000 
L 3775 2725 
L 3125 2725 
Q 2800 2725 2525 2650 
L 2300 2875 
L 5400 2875 
L 5675 3150 
L 6075 2725 
L 4225 2725 
Q 4100 2600 3800 2000 
L 5350 2000 
L 5575 2225 
L 5900 1900 
L 5675 1725 
L 5675 -100 
Q 5675 -325 5587 -437 
Q 5500 -550 5250 -650 
Q 5150 -350 4650 -200 
L 4650 -100 
Q 5225 -200 5287 -150 
Q 5350 -100 5350 50 
L 5350 1850 
L 4750 1850 
L 4750 75 
L 4450 -50 
L 4450 1850 
L 3900 1850 
L 3900 -100 
L 3600 -250 
L 3600 1850 
L 3000 1850 
L 3000 -425 
L 2650 -600 
Q 2675 100 2675 800 
Q 2675 1500 2650 2200 
L 2975 2000 
L 3650 2000 
z
M 975 5100 
Q 1475 4750 1562 4612 
Q 1650 4475 1650 4375 
Q 1650 4250 1550 4137 
Q 1450 4025 1425 4025 
Q 1325 4025 1275 4300 
Q 1200 4700 925 5050 
L 975 5100 
z
M 325 3750 
L 1775 3750 
L 2050 4025 
L 2450 3600 
L 1150 3600 
Q 825 3600 550 3525 
L 325 3750 
z
M 700 3225 
Q 1125 2525 1175 2075 
Q 1225 1625 1100 1550 
Q 975 1475 950 1475 
Q 825 1475 850 1875 
Q 875 2350 650 3175 
L 700 3225 
z
M 1525 1050 
L 2500 1350 
L 2525 1250 
Q 2125 1075 1450 800 
Q 775 525 550 300 
L 275 750 
Q 525 775 1375 1025 
Q 1700 2550 1775 3400 
L 2275 3150 
L 2100 2975 
L 1525 1050 
z
" transform="scale(0.015625)"/>
      <path id="SimSun-12" d="M 400 -475 
L 225 -375 
L 2775 4975 
L 2950 4875 
L 400 -475 
z
" transform="scale(0.015625)"/>
      <path id="SimSun-33" d="M 950 2100 
L 950 450 
Q 950 350 1012 300 
Q 1075 250 1175 250 
L 1350 250 
L 1350 100 
L 150 100 
L 150 250 
L 325 250 
Q 450 250 500 300 
Q 550 350 550 450 
L 550 4025 
Q 550 4125 500 4175 
Q 450 4225 325 4225 
L 175 4225 
L 175 4375 
L 1650 4375 
Q 2275 4375 2612 4062 
Q 2950 3750 2950 3275 
Q 2950 2700 2587 2400 
Q 2225 2100 1725 2100 
L 950 2100 
z
M 1575 2250 
Q 1950 2250 2237 2475 
Q 2525 2700 2525 3250 
Q 2525 3750 2287 3987 
Q 2050 4225 1525 4225 
L 1175 4225 
Q 1075 4225 1012 4175 
Q 950 4125 950 4025 
L 950 2250 
L 1575 2250 
z
" transform="scale(0.015625)"/>
     </defs>
     <use xlink:href="#SimSun-3c8a"/>
     <use xlink:href="#SimSun-190f" transform="translate(100 0)"/>
     <use xlink:href="#SimSun-a3e" transform="translate(200 0)"/>
     <use xlink:href="#SimSun-311f" transform="translate(300 0)"/>
     <use xlink:href="#SimSun-3" transform="translate(400 0)"/>
     <use xlink:href="#SimSun-12" transform="translate(450 0)"/>
     <use xlink:href="#SimSun-3" transform="translate(500 0)"/>
     <use xlink:href="#SimSun-37" transform="translate(550 0)"/>
     <use xlink:href="#SimSun-26" transform="translate(600 0)"/>
     <use xlink:href="#SimSun-33" transform="translate(650 0)"/>
     <use xlink:href="#SimSun-3" transform="translate(700 0)"/>
     <use xlink:href="#SimSun-a3e" transform="translate(750 0)"/>
     <use xlink:href="#SimSun-311f" transform="translate(850 0)"/>
    </g>
   </g>
   <g id="text_8">
    <!-- 电机仿真 / 实际执行机构 -->
    <g transform="translate(344.342 127.358245) scale(0.11 -0.11)">
     <defs>
      <path id="SimSun-52f" d="M 1750 600 
Q 1750 75 1775 -425 
L 1375 -600 
Q 1400 375 1400 675 
L 1400 3100 
Q 775 2300 375 1950 
L 300 2025 
Q 800 2625 1237 3425 
Q 1675 4225 1925 5100 
L 2500 4725 
Q 2275 4650 2062 4262 
Q 1850 3875 1650 3500 
L 1925 3350 
L 1750 3175 
L 1750 600 
z
M 5375 2425 
Q 5225 75 5012 -212 
Q 4800 -500 4425 -600 
Q 4425 -275 3700 0 
L 3725 100 
Q 4375 -50 4512 -37 
Q 4650 -25 4725 100 
Q 4800 225 5025 2550 
L 3725 2550 
Q 3650 1400 3212 637 
Q 2775 -125 1925 -625 
L 1875 -525 
Q 2475 -100 2862 637 
Q 3250 1375 3325 2150 
Q 3400 2925 3400 3700 
L 2850 3700 
Q 2525 3700 2250 3625 
L 2025 3850 
L 5275 3850 
L 5600 4175 
L 6075 3700 
L 3775 3700 
Q 3750 2950 3725 2700 
L 5000 2700 
L 5225 2925 
L 5600 2575 
L 5375 2425 
z
M 3575 5200 
Q 4050 4875 4175 4712 
Q 4300 4550 4300 4400 
Q 4300 4350 4262 4250 
Q 4225 4150 4100 4075 
Q 3975 4000 3900 4325 
Q 3825 4625 3500 5125 
L 3575 5200 
z
" transform="scale(0.015625)"/>
      <path id="SimSun-2d4f" d="M 2050 3450 
L 2050 2900 
L 4300 2900 
L 4300 3450 
L 2050 3450 
z
M 2050 2750 
L 2050 2225 
L 4300 2225 
L 4300 2750 
L 2050 2750 
z
M 2050 2075 
L 2050 1550 
L 4300 1550 
L 4300 2075 
L 2050 2075 
z
M 2050 1400 
L 2050 875 
L 4300 875 
L 4300 1400 
L 2050 1400 
z
M 2875 3600 
L 2925 4325 
L 1525 4325 
Q 1200 4325 925 4250 
L 700 4475 
L 2950 4475 
Q 2975 4825 2975 5275 
L 3550 5025 
L 3375 4925 
L 3300 4475 
L 5000 4475 
L 5325 4825 
L 5775 4325 
L 3275 4325 
L 3200 3600 
L 4275 3600 
L 4450 3875 
L 4850 3575 
L 4650 3375 
L 4650 875 
L 5300 875 
L 5675 1225 
L 6125 725 
L 1150 725 
Q 825 725 550 650 
L 325 875 
L 1700 875 
Q 1700 3200 1675 3775 
L 2050 3600 
L 2875 3600 
z
M 2425 725 
L 2825 350 
L 2575 300 
Q 1500 -425 800 -650 
L 775 -575 
Q 1950 125 2425 725 
z
M 3800 700 
Q 4575 375 4962 200 
Q 5350 25 5400 -112 
Q 5450 -250 5450 -325 
Q 5450 -400 5400 -525 
Q 5350 -650 5325 -650 
Q 5250 -650 5100 -450 
Q 4875 -150 3750 625 
L 3800 700 
z
" transform="scale(0.015625)"/>
      <path id="SimSun-11ce" d="M 1950 3625 
Q 2575 3400 2700 3250 
Q 2825 3100 2825 2975 
Q 2825 2850 2750 2700 
Q 2675 2550 2625 2550 
Q 2550 2550 2450 2800 
Q 2275 3175 1900 3550 
L 1950 3625 
z
M 3575 1325 
Q 3500 1100 3425 925 
Q 4650 550 5087 325 
Q 5525 100 5512 -225 
Q 5500 -550 5400 -550 
Q 5300 -550 5075 -300 
Q 4625 175 3375 800 
Q 3025 175 2300 -150 
Q 1575 -475 425 -625 
L 425 -525 
Q 1475 -325 2200 100 
Q 2925 525 3200 1325 
L 1225 1325 
Q 900 1325 625 1250 
L 400 1475 
L 3225 1475 
Q 3325 1950 3375 2575 
Q 3425 3200 3425 3700 
L 4050 3400 
L 3850 3225 
Q 3750 2300 3625 1475 
L 5175 1475 
L 5550 1850 
L 6075 1325 
L 3575 1325 
z
M 1275 2700 
Q 1975 2425 2100 2262 
Q 2225 2100 2225 1975 
Q 2225 1850 2150 1700 
Q 2075 1550 2025 1550 
Q 1950 1550 1850 1800 
Q 1675 2175 1225 2625 
L 1275 2700 
z
M 2750 5225 
L 2825 5275 
Q 3225 5100 3425 4925 
Q 3625 4750 3625 4600 
Q 3625 4450 3512 4300 
Q 3400 4150 3325 4150 
Q 3250 4150 3200 4400 
Q 3100 4775 2750 5225 
z
M 4975 3225 
L 5350 3925 
L 1175 3925 
Q 1225 3525 1125 3300 
Q 1025 3075 787 3100 
Q 550 3125 550 3200 
Q 550 3300 700 3475 
Q 975 3825 1050 4375 
L 1150 4375 
L 1175 4075 
L 5300 4075 
L 5575 4350 
L 6050 3800 
Q 5625 3825 5050 3175 
L 4975 3225 
z
" transform="scale(0.015625)"/>
      <path id="SimSun-4c75" d="M 4750 2300 
Q 5600 1475 5762 1187 
Q 5925 900 5925 700 
Q 5925 575 5850 450 
Q 5775 325 5750 325 
Q 5650 325 5550 625 
Q 5400 1050 5200 1412 
Q 5000 1775 4675 2250 
L 4750 2300 
z
M 2750 4725 
L 5000 4725 
L 5275 5000 
L 5675 4575 
L 3450 4575 
Q 3250 4575 2975 4500 
L 2750 4725 
z
M 2275 3200 
L 5400 3200 
L 5700 3500 
L 6125 3050 
L 4325 3050 
L 4325 175 
Q 4325 -50 4225 -212 
Q 4125 -375 3700 -525 
Q 3650 -175 2975 50 
L 2975 150 
Q 3675 25 3825 37 
Q 3975 50 3975 275 
L 3975 3050 
L 3100 3050 
Q 2775 3050 2500 2975 
L 2275 3200 
z
M 3625 2125 
L 3400 1975 
Q 2675 600 1900 50 
L 1850 125 
Q 2375 750 2687 1400 
Q 3000 2050 3100 2450 
L 3625 2125 
z
M 700 -550 
Q 725 700 725 2587 
Q 725 4475 700 5050 
L 1050 4825 
L 1950 4825 
L 2175 5050 
L 2525 4700 
L 2300 4550 
L 1600 3200 
Q 2050 2750 2212 2475 
Q 2375 2200 2387 1912 
Q 2400 1625 2275 1375 
Q 2150 1125 1625 950 
Q 1550 1300 1050 1475 
L 1050 -375 
L 700 -550 
z
M 1475 3200 
L 1975 4675 
L 1050 4675 
L 1050 1575 
Q 1675 1425 1862 1475 
Q 2050 1525 2050 1962 
Q 2050 2400 1475 3200 
z
" transform="scale(0.015625)"/>
      <path id="SimSun-1897" d="M 3450 3500 
Q 3425 4750 3400 5175 
L 4025 4900 
L 3800 4725 
L 3800 3525 
L 4625 3600 
L 4800 3875 
L 5200 3575 
L 5000 3400 
Q 4925 2925 4925 2325 
Q 4925 1925 4975 1225 
Q 5025 525 5600 100 
L 5950 1225 
L 6050 1200 
Q 5975 925 5937 475 
Q 5900 25 6050 -275 
Q 6075 -325 6075 -400 
Q 6075 -525 6100 -500 
Q 6125 -475 5975 -475 
Q 5925 -475 5637 -362 
Q 5350 -250 5025 237 
Q 4700 725 4650 1187 
Q 4600 1650 4600 2150 
Q 4600 2800 4650 3450 
L 3800 3375 
Q 3775 2475 3650 1825 
Q 4225 1550 4325 1400 
Q 4425 1250 4425 1125 
Q 4425 1050 4375 925 
Q 4325 800 4300 800 
Q 4225 800 4125 975 
Q 3925 1250 3575 1550 
Q 3050 100 1825 -650 
L 1775 -575 
Q 2850 275 3275 1725 
Q 2875 2000 2575 2150 
L 2600 2250 
Q 2925 2125 3325 1975 
Q 3425 2450 3450 3350 
L 2850 3300 
L 2650 3200 
L 2375 3425 
L 3450 3500 
z
M 250 1900 
Q 525 1950 1475 2325 
L 1475 3575 
L 1075 3575 
Q 750 3575 475 3500 
L 250 3725 
L 1475 3725 
Q 1475 4600 1450 5225 
L 2050 4950 
L 1825 4800 
L 1825 3725 
L 2150 3725 
L 2425 4000 
L 2850 3575 
L 1825 3575 
L 1825 2450 
L 2725 2825 
L 2775 2725 
L 1825 2200 
L 1825 200 
Q 1875 -400 1275 -625 
Q 1300 -325 525 -75 
L 525 25 
Q 1125 -50 1300 -37 
Q 1475 -25 1475 250 
L 1475 2025 
Q 1075 1825 675 1600 
L 550 1450 
L 250 1900 
z
" transform="scale(0.015625)"/>
      <path id="SimSun-3e7c" d="M 2825 4550 
L 4950 4550 
L 5300 4875 
L 5725 4400 
L 3650 4400 
Q 3325 4400 3050 4325 
L 2825 4550 
z
M 3050 100 
Q 3725 50 3950 50 
Q 4175 50 4175 350 
L 4175 2900 
L 3225 2900 
Q 2900 2900 2625 2825 
L 2400 3050 
L 5275 3050 
L 5650 3400 
L 6075 2900 
L 4525 2900 
L 4525 225 
Q 4550 -450 3900 -575 
Q 3900 -225 3050 -25 
L 3050 100 
z
M 1825 5175 
L 2275 4825 
Q 2100 4775 1675 4300 
Q 1250 3800 600 3325 
L 550 3400 
Q 975 3800 1337 4312 
Q 1700 4825 1825 5175 
z
M 1875 2325 
L 1875 -400 
L 1500 -625 
Q 1525 -75 1525 2425 
Q 950 1825 400 1450 
L 350 1525 
Q 875 2050 1362 2700 
Q 1850 3350 2100 3950 
L 2525 3575 
L 2300 3450 
Q 1975 2975 1750 2700 
L 2025 2475 
L 1875 2325 
z
" transform="scale(0.015625)"/>
      <path id="SimSun-1db4" d="M 3475 3825 
Q 3025 3050 2575 2575 
L 2500 2625 
Q 3250 3750 3575 5250 
L 4175 4925 
L 3925 4775 
Q 3725 4325 3550 3975 
L 5350 3975 
L 5575 4225 
L 5975 3850 
L 5750 3700 
Q 5675 650 5637 287 
Q 5600 -75 5400 -300 
Q 5200 -525 4800 -625 
Q 4825 -275 3950 -25 
L 3975 100 
Q 4650 -50 4837 -37 
Q 5025 -25 5125 75 
Q 5225 175 5262 475 
Q 5300 775 5375 3825 
L 3475 3825 
z
M 2975 1225 
L 4400 1275 
Q 4250 1700 4075 2000 
L 4150 2050 
Q 4775 1475 4850 1237 
Q 4925 1000 4787 862 
Q 4650 725 4600 725 
Q 4550 725 4512 825 
Q 4475 925 4425 1175 
Q 4050 1125 3587 1025 
Q 3125 925 2925 750 
L 2650 1225 
Q 2925 1275 3237 2012 
Q 3550 2750 3625 3175 
L 4150 2850 
L 3925 2750 
Q 3350 1625 2975 1225 
z
M 1725 2800 
Q 1725 75 1750 -475 
L 1350 -625 
Q 1375 500 1375 2525 
Q 1025 1575 450 800 
L 350 850 
Q 1025 2050 1375 3600 
L 750 3600 
L 525 3550 
L 325 3750 
L 1375 3750 
Q 1375 4575 1350 5250 
L 1925 4950 
L 1725 4775 
L 1725 3750 
L 2025 3750 
L 2325 4050 
L 2775 3600 
L 1725 3600 
L 1725 2950 
Q 2325 2625 2462 2462 
Q 2600 2300 2600 2150 
Q 2600 2050 2537 1912 
Q 2475 1775 2425 1775 
Q 2350 1775 2225 2050 
Q 2050 2475 1725 2800 
z
" transform="scale(0.015625)"/>
     </defs>
     <use xlink:href="#SimSun-2b65"/>
     <use xlink:href="#SimSun-1d6a" transform="translate(100 0)"/>
     <use xlink:href="#SimSun-52f" transform="translate(200 0)"/>
     <use xlink:href="#SimSun-2d4f" transform="translate(300 0)"/>
     <use xlink:href="#SimSun-3" transform="translate(400 0)"/>
     <use xlink:href="#SimSun-12" transform="translate(450 0)"/>
     <use xlink:href="#SimSun-3" transform="translate(500 0)"/>
     <use xlink:href="#SimSun-11ce" transform="translate(550 0)"/>
     <use xlink:href="#SimSun-4c75" transform="translate(650 0)"/>
     <use xlink:href="#SimSun-1897" transform="translate(750 0)"/>
     <use xlink:href="#SimSun-3e7c" transform="translate(850 0)"/>
     <use xlink:href="#SimSun-1d6a" transform="translate(950 0)"/>
     <use xlink:href="#SimSun-1db4" transform="translate(1050 0)"/>
    </g>
   </g>
   <g id="patch_14">
    <path d="M 248.832 282.44736 
Q 277.938 282.44736 306.149573 282.44736 
" style="fill: none; stroke: #000000; stroke-width: 0.8; stroke-linecap: round"/>
    <path d="M 302.149573 280.44736 
L 306.149573 282.44736 
L 302.149573 284.44736 
" style="fill: none; stroke: #000000; stroke-width: 0.8; stroke-linecap: round"/>
   </g>
   <g id="patch_15">
    <path d="M 407.592 262.9728 
Q 407.592 243.49824 407.592 224.918107 
" style="fill: none; stroke: #000000; stroke-width: 0.8; stroke-linecap: round"/>
    <path d="M 405.592 228.918107 
L 407.592 224.918107 
L 409.592 228.918107 
" style="fill: none; stroke: #000000; stroke-width: 0.8; stroke-linecap: round"/>
   </g>
   <g id="patch_16">
    <path d="M 407.592 185.07456 
Q 407.592 163.97712 407.592 143.774107 
" style="fill: none; stroke: #000000; stroke-width: 0.8; stroke-linecap: round"/>
    <path d="M 405.592 147.774107 
L 407.592 143.774107 
L 409.592 147.774107 
" style="fill: none; stroke: #000000; stroke-width: 0.8; stroke-linecap: round"/>
   </g>
   <g id="text_9">
    <!-- 心跳与命令超时监督 -->
    <g transform="translate(362.592 52.34639) scale(0.1 -0.1)">
     <defs>
      <path id="SimSun-15f3" d="M 2750 4875 
Q 3350 4525 3625 4275 
Q 3900 4025 3862 3762 
Q 3825 3500 3725 3412 
Q 3625 3325 3575 3325 
Q 3450 3325 3350 3675 
Q 3200 4125 2675 4800 
L 2750 4875 
z
M 2025 3800 
L 2650 3475 
L 2425 3275 
L 2425 725 
Q 2400 225 2775 200 
L 4200 200 
Q 4475 225 4537 625 
Q 4600 1025 4625 1675 
L 4750 1675 
Q 4750 1000 4812 687 
Q 4875 375 5150 275 
Q 4950 -125 4425 -125 
L 2575 -125 
Q 2000 -100 2050 625 
L 2050 2675 
Q 2050 3325 2025 3800 
z
M 1225 2900 
L 1350 2900 
Q 1350 2100 1300 1725 
Q 1250 1350 1087 1225 
Q 925 1100 775 1100 
Q 700 1100 587 1137 
Q 475 1175 475 1250 
Q 475 1375 700 1625 
Q 1025 2000 1225 2900 
z
M 4850 2925 
L 4925 2975 
Q 5675 2300 5825 2050 
Q 5975 1800 5925 1550 
Q 5875 1300 5775 1237 
Q 5675 1175 5625 1175 
Q 5500 1175 5450 1525 
Q 5375 1975 4850 2925 
z
" transform="scale(0.015625)"/>
      <path id="SimSun-4423" d="M 2650 3875 
Q 3075 3525 3187 3350 
Q 3300 3175 3300 3075 
Q 3300 2950 3187 2812 
Q 3075 2675 3050 2675 
Q 2950 2675 2925 2925 
Q 2850 3300 2575 3825 
L 2650 3875 
z
M 4400 4175 
Q 4400 4600 4375 5100 
L 4875 4850 
L 4725 4700 
L 4725 3075 
Q 5275 3625 5500 4150 
L 5900 3725 
L 5675 3675 
Q 5025 3150 4725 2925 
L 4725 2300 
Q 5125 2175 5562 1987 
Q 6000 1800 5925 1512 
Q 5850 1225 5775 1225 
Q 5675 1225 5575 1425 
Q 5325 1800 4725 2175 
L 4725 350 
Q 4700 -50 5025 -25 
L 5425 -25 
Q 5600 -50 5637 287 
Q 5675 625 5675 1050 
L 5800 1050 
Q 5800 650 5850 337 
Q 5900 25 6100 0 
Q 5950 -300 5625 -325 
L 4850 -325 
Q 4375 -350 4400 200 
L 4400 4175 
z
M 3475 5100 
L 4025 4850 
L 3825 4675 
L 3825 2500 
Q 3850 1125 3400 475 
Q 2950 -175 2025 -625 
L 1975 -550 
Q 3450 350 3500 2050 
Q 2675 1500 2550 1200 
L 2225 1625 
Q 2600 1725 3500 2200 
Q 3500 4700 3475 5100 
z
M 275 225 
L 550 300 
Q 550 1800 525 2500 
L 1025 2225 
L 875 2100 
L 875 375 
L 1325 500 
L 1325 3125 
L 925 3125 
L 925 2925 
L 575 2800 
Q 600 3350 600 3837 
Q 600 4325 575 4950 
L 925 4725 
L 2000 4725 
L 2175 4975 
L 2550 4650 
L 2350 4500 
Q 2350 3350 2375 3025 
L 2025 2875 
L 2025 3125 
L 1650 3125 
L 1650 2075 
L 2000 2075 
L 2225 2300 
L 2575 1925 
L 1650 1925 
L 1650 575 
L 2500 800 
L 2525 700 
Q 1800 450 800 25 
L 550 -200 
L 275 225 
z
M 925 4575 
L 925 3275 
L 2025 3275 
L 2025 4575 
L 925 4575 
z
" transform="scale(0.015625)"/>
      <path id="SimSun-43b5" d="M 1175 1875 
Q 1100 1275 1050 975 
Q 1325 700 1675 425 
L 1675 2725 
L 1125 2725 
Q 800 2725 525 2650 
L 300 2875 
L 1625 2875 
L 1625 3925 
L 1325 3925 
Q 1000 3925 725 3850 
L 500 4075 
L 1625 4075 
Q 1625 4825 1600 5225 
L 2200 4950 
L 1950 4750 
L 1950 4075 
L 2400 4075 
L 2675 4350 
L 3075 3925 
L 1950 3925 
L 1950 2875 
L 2425 2875 
L 2725 3175 
L 3150 2725 
L 2000 2725 
L 2000 1650 
L 2525 1650 
L 2825 1925 
L 3225 1500 
L 2000 1500 
L 2000 250 
Q 2700 -75 3537 -100 
Q 4375 -125 4975 -125 
Q 5675 -125 6125 -100 
L 6125 -200 
Q 5750 -275 5675 -550 
Q 4500 -525 3575 -437 
Q 2650 -350 2062 -62 
Q 1475 225 1025 850 
Q 850 75 300 -600 
L 225 -550 
Q 600 150 712 862 
Q 825 1575 825 2275 
L 1375 2025 
L 1175 1875 
z
M 3800 2025 
L 3800 800 
L 5250 800 
L 5250 2025 
L 3800 2025 
z
M 4550 3150 
Q 4875 3100 5025 3100 
Q 5100 3100 5187 3125 
Q 5275 3150 5312 3450 
Q 5350 3750 5400 4475 
L 4350 4475 
Q 4300 2975 2900 2275 
L 2850 2375 
Q 3925 3125 3950 4475 
Q 3625 4475 3350 4400 
L 3125 4625 
L 5375 4625 
L 5600 4875 
L 5925 4550 
L 5750 4400 
Q 5700 3625 5650 3325 
Q 5600 3025 5500 2875 
Q 5400 2725 5125 2600 
Q 5000 2900 4550 3050 
L 4550 3150 
z
M 3425 2425 
L 3825 2175 
L 5200 2175 
L 5450 2450 
L 5825 2075 
L 5575 1925 
Q 5575 850 5600 425 
L 5250 275 
L 5250 650 
L 3800 650 
L 3800 300 
L 3425 100 
Q 3450 850 3450 1387 
Q 3450 1925 3425 2425 
z
" transform="scale(0.015625)"/>
      <path id="SimSun-1c26" d="M 4500 3600 
Q 4500 4575 4475 5225 
L 5100 4900 
L 4850 4725 
L 4850 3600 
L 5225 3600 
L 5550 3925 
L 6025 3450 
L 4850 3450 
L 4850 100 
Q 4850 -375 4300 -575 
Q 4275 -200 3475 -25 
L 3475 100 
Q 4150 0 4325 25 
Q 4500 50 4500 325 
L 4500 3450 
L 3200 3450 
Q 2875 3450 2600 3375 
L 2375 3600 
L 4500 3600 
z
M 2875 2825 
Q 3525 2375 3637 2200 
Q 3750 2025 3750 1925 
Q 3750 1800 3637 1637 
Q 3525 1475 3475 1475 
Q 3400 1475 3325 1775 
Q 3200 2225 2800 2750 
L 2875 2825 
z
M 925 4150 
L 925 2650 
L 1950 2650 
L 1950 4150 
L 925 4150 
z
M 925 2500 
L 925 900 
L 1950 900 
L 1950 2500 
L 925 2500 
z
M 2300 2000 
Q 2300 800 2325 450 
L 1950 250 
L 1950 750 
L 925 750 
L 925 225 
L 550 25 
Q 575 825 575 2425 
Q 575 4025 550 4500 
L 950 4300 
L 1900 4300 
L 2100 4550 
L 2500 4225 
L 2300 4050 
L 2300 2000 
z
" transform="scale(0.015625)"/>
     </defs>
     <use xlink:href="#SimSun-15f3"/>
     <use xlink:href="#SimSun-4423" transform="translate(100 0)"/>
     <use xlink:href="#SimSun-43e" transform="translate(200 0)"/>
     <use xlink:href="#SimSun-aad" transform="translate(300 0)"/>
     <use xlink:href="#SimSun-514" transform="translate(400 0)"/>
     <use xlink:href="#SimSun-43b5" transform="translate(500 0)"/>
     <use xlink:href="#SimSun-1c26" transform="translate(600 0)"/>
     <use xlink:href="#SimSun-2d01" transform="translate(700 0)"/>
     <use xlink:href="#SimSun-2d93" transform="translate(800 0)"/>
    </g>
   </g>
  </g>
 </g>
 <defs>
  <clipPath id="pd11fb6b15e">
   <rect x="5.4" y="3.312" width="529.2" height="324.576"/>
  </clipPath>
 </defs>
</svg>
